<svg xmlns="http://www.w3.org/2000/svg" enable-background="new 0 0 3000 3000" viewBox="0 0 3000 3000"><path fill="#e9ebfb" d="M2975,1406.3c0-484.9-393.1-878-878-878c-199.5,0-383.4,66.5-530.9,178.6c-40.7-49.5-102.4-81.1-171.5-81.1
		c-85.9,0-160.5,48.9-197.3,120.3C1102.7,692,993,661,876.2,661c-357.5,0-647.2,289.8-647.2,647.2c0,18.7,0.8,37.3,2.4,55.6
		C108,1435.5,25,1569,25,1721.9c0,123.8,54.4,234.9,140.5,310.7C83,2067,25,2148.4,25,2243.4v0c0,126.1,102.2,228.3,228.3,228.3
		h2175.4c184.3,0,333.6-149.4,333.6-333.6c0-46-9.3-89.8-26.2-129.7C2884.2,1851.1,2975,1639.3,2975,1406.3z"/><ellipse cx="1414.6" cy="2315.2" fill="#d7dbf4" rx="1120.8" ry="59.5"/><path fill="#fff" d="M446.1,912.6c-16.1,407.9,0.4,816.8,48.4,1226.8l207.9,183c270.3-29.5,538.5-34.2,804.1-7.5
			c-56.3-451.1-69.7-913.2-51.9-1383.2C1112.4,925.2,776.2,918.8,446.1,912.6z"/><polygon fill="#bdbdbd" points="494.6 2139.4 696.8 2122 702.5 2322.4"/><path fill="#fcbe6a" d="M1573.5,1086.5h-237.9c-29.2,0-47.5-31.6-32.9-56.9l118.9-206c14.6-25.3,51.1-25.3,65.7,0l6.2,10.7
			l112.7,195.3C1621,1054.9,1602.7,1086.5,1573.5,1086.5z"/><path fill="#edab5d" d="M1573.5,1086.5h-185.1c107.6-64.7,114.7-177.6,105.2-252.2l112.7,195.3
			C1621,1054.9,1602.7,1086.5,1573.5,1086.5z"/><path fill="#414042" d="M1571.7,1072.9h-234.1c-9.4,0-17.8-4.8-22.5-13c-4.7-8.1-4.7-17.8,0-25.9l117.1-202.8
			c4.7-8.1,13.1-13,22.5-13c9.4,0,17.8,4.8,22.5,13l117.1,202.8c4.7,8.1,4.7,17.8,0,25.9C1589.5,1068.1,1581.1,1072.9,1571.7,1072.9
			z M1454.6,826.5c-6.4,0-12.1,3.3-15.3,8.9l-117.1,202.8c-3.2,5.5-3.2,12.2,0,17.7c3.2,5.5,8.9,8.9,15.3,8.9h234.1
			c6.4,0,12.1-3.3,15.3-8.9c3.2-5.5,3.2-12.2,0-17.7l-117.1-202.8C1466.7,829.8,1461,826.5,1454.6,826.5z"/><path fill="#414042" d="M1454.6,991.5L1454.6,991.5c-7.9,0-14.2-6.4-14.2-14.2v-89.9c0-7.9,6.4-14.2,14.2-14.2l0,0
				c7.9,0,14.2,6.4,14.2,14.2v89.9C1468.8,985.1,1462.5,991.5,1454.6,991.5z"/><path fill="#414042" d="M1470.4,1020c0,8.7-7.1,15.8-15.8,15.8s-15.8-7.1-15.8-15.8c0-8.7,7.1-15.8,15.8-15.8
				S1470.4,1011.3,1470.4,1020z"/><path fill="#fcbe6a" d="M532.3,1222.9H347.9c-22.7,0-36.8-24.5-25.5-44.1l92.2-159.7c11.3-19.6,39.6-19.6,51,0l4.8,8.3l87.4,151.4
			C569.2,1198.3,555,1222.9,532.3,1222.9z"/><path fill="#edab5d" d="M532.3,1222.9H388.8c83.4-50.1,88.9-137.7,81.6-195.6l87.4,151.4C569.2,1198.3,555,1222.9,532.3,1222.9z"/><path fill="#414042" d="M530.9,1212.3H349.3c-7.3,0-13.8-3.8-17.4-10.1c-3.6-6.3-3.6-13.8,0-20.1l90.8-157.2
			c3.6-6.3,10.2-10.1,17.4-10.1c7.3,0,13.8,3.8,17.4,10.1l90.8,157.2c3.6,6.3,3.6,13.8,0,20.1
			C544.7,1208.5,538.2,1212.3,530.9,1212.3z M440.1,1021.2c-5,0-9.4,2.6-11.9,6.9l-90.8,157.2c-2.5,4.3-2.5,9.4,0,13.7
			c2.5,4.3,6.9,6.9,11.9,6.9h181.6c5,0,9.4-2.6,11.9-6.9c2.5-4.3,2.5-9.4,0-13.7L452,1028.1C449.5,1023.8,445.1,1021.2,440.1,1021.2
			z"/><path fill="#414042" d="M440.1,1149.2L440.1,1149.2c-6.1,0-11-4.9-11-11v-69.7c0-6.1,4.9-11,11-11l0,0c6.1,0,11,4.9,11,11v69.7
				C451.1,1144.2,446.2,1149.2,440.1,1149.2z"/><path fill="#414042" d="M452.4,1171.3c0,6.8-5.5,12.2-12.2,12.2s-12.2-5.5-12.2-12.2c0-6.8,5.5-12.2,12.2-12.2
				S452.4,1164.5,452.4,1171.3z"/><g><path fill="#e0e0e0" d="M1188.5,1218.1c-0.1,7.4-0.1,14.8-0.1,22.2l-489.1-8.6c0-7.4-0.1-14.8-0.1-22.2L1188.5,1218.1z"/><path fill="#e0e0e0" d="M1367.2,1364.3l-796.9-13.9c-0.2-7.4-0.3-14.8-0.4-22.2l797.1,13.9
			C1367.1,1349.6,1367.1,1356.9,1367.2,1364.3z"/><path fill="#e0e0e0" d="M1369,1485.2l-795.1-13.9c-0.3-7.4-0.5-14.8-0.8-22.2l795.4,13.9C1368.7,1470.4,1368.8,1477.8,1369,1485.2z"/><path fill="#e0e0e0" d="M1372.6,1606.2l-793.2-13.9c-0.4-7.4-0.8-14.8-1.1-22.2l793.5,13.8C1372,1591.4,1372.3,1598.8,1372.6,1606.2
			z"/><path fill="#e0e0e0" d="M1378,1727.2l-791.1-13.8c-0.5-7.4-1-14.8-1.5-22.2l791.4,13.8C1377.2,1712.4,1377.6,1719.8,1378,1727.2z"/><path fill="#e0e0e0" d="M1384.5,1854.2l-791.1-13.8c-0.5-7.4-1-14.8-1.5-22.2l791.4,13.8C1383.7,1839.4,1384.1,1846.8,1384.5,1854.2
			z"/><path fill="#e0e0e0" d="M931.1,1950.9v22.2l-324.5-5.7c-0.5-7.4-1-14.8-1.5-22.2L931.1,1950.9z"/></g><g><path fill="#f7c19b" d="M1179.3,1969.8c0,0,120.8-35.5,165.1,21.3c5.8,7.4,9.6,16.2,11.8,25.3l8.9,37c6.5,27-9.1,54.3-35.7,62.4
			c-15.1,4.6-33.5,8-54.6,7.5c-3.9-0.1-6.3,4.2-4,7.4c13.5,19.1,44.2,68.6,27,102.6c-4.6,9.2-18,8.5-22.3-0.8l-4.3-9.6
			c-4.1-9.1-10-17.2-17.3-23.9c-13.5-12.5-37.3-37.3-56-71.5c-6.3-11.6-15.2-21.5-26-29l-34-23.6l0.5-83.1l27.3-21.3L1179.3,1969.8z
			"/><path fill="#fff" d="M1145.3,1955.6l36.9,3.3c5.9,0.5,10.2,6,9.3,11.9l-18.8,121.7c-1,6.6-7.9,10.5-14.1,8l-14.9-6L1145.3,1955.6z
			"/><path fill="#58595b" d="M1042.3,1951c-6.6,51.6-4.7,103.1,2.2,154.5c0.8,6.1,6,10.5,12.1,10.4l68.4-1.2
			c14.5-0.2,26.6-11.2,28.3-25.5l14.8-123.7c1.3-10.8-7.1-20.3-18-20.3l-101.3,0C1045.5,1945.2,1042.7,1947.6,1042.3,1951z"/></g><g><path fill="#f7c19b" d="M1900.1,1291.6l-33.3,36c0,0-26-13.7-40.4-28c-8.7-8.7-13-17.6-4.7-23.9c0,0-6.3-12.8,6.6-15.1
					c0,0-3.9-12,7.7-13.9c0,0,0.2-17.1,17.7-3.3c1.2,0.9,2.5,2,3.8,3.2c1.7,1.6,4.1,2.1,6.3,1.3l2.5-0.9c6.3-2.1,13,1.6,14.6,8
					l3.3,13.5c2.2,8.9,7.4,16.8,14.8,22.3L1900.1,1291.6z"/><path fill="#fff" d="M2132.1,1488.6l3.1-75.1l-86.5-20.3c-6.7-1.6-13-4.5-18.5-8.5l-133.4-98.1c-24.7,21.7-37.2,40.6-37.2,40.6
				s114.1,103.2,120,105.3C2018,1451.8,2073.5,1470.3,2132.1,1488.6z"/><path fill="#fff" d="M2085.6,1520l-17.1,151.7c-1.8,16,11.4,29.8,27.4,28.8l29.8-1.8l-21-156.2L2085.6,1520z"/><polygon fill="#f7c19b" points="2082.3 2260.6 2101 2235.7 2115.1 2142.3 2037.3 2139.8 2025.7 2234.9 2033.5 2255.4 2038.1 2267.9"/><path fill="#414042" d="M1906.7,2278.6c-2.1,6.5,2.3,13.4,9.1,14.2l174.2,22c4,0.5,7.6-2.5,7.8-6.6l0.2-3.8l0.2-5.5l2.8-63.2
						l-31.1,14.1c-7.6,3.4-16.4,2.6-23.3-2.1l-18.1-12.6l-74.8-2.3c-18.9-0.6-35.8,11.4-41.6,29.4l-3.6,11.2L1906.7,2278.6
						L1906.7,2278.6z"/><polygon fill="#333" points="1906.7 2278.6 2097.9 2304.4 2098.2 2298.9 1908.4 2273.3"/><path fill="#333" d="M2027.9,2237.7c-19.9-4-23.5-16.2-23.8-23.1c-0.2-4.7,2.4-9,6.7-10.9c4.3-1.9,9.2-1,12.5,2.4
							c9.1,9.1,7.9,28.4,7.9,29.2c-0.1,0.8-0.4,1.5-1.1,2c-0.2,0.2-0.4,0.3-0.7,0.4C2028.9,2237.8,2028.4,2237.8,2027.9,2237.7z
							 M2013,2208.7c-1.8,0.8-3.6,2.7-3.5,5.6c0.5,8.6,5.9,14.4,16.2,17.3c-0.1-5.4-1-16.3-6.4-21.7c-1.9-2-4.4-2-6.1-1.3
							C2013.2,2208.6,2013.1,2208.6,2013,2208.7z"/><path fill="#333" d="M2009.1,2260.2c-4.7-0.6-8.3-3.8-9.5-8.5c-1.2-4.9,0.6-10,4.7-13c8.8-6.4,23.5-6.5,24.1-6.5
							c0.9,0,1.7,0.4,2.2,1.1c0.5,0.7,0.7,1.6,0.4,2.5c-4.5,13.3-10,21.2-16.2,23.6C2013,2260.2,2011.1,2260.4,2009.1,2260.2z
							 M2007.5,2243.2c-2.7,2-3.1,5.1-2.6,7.2c0.6,2.4,2.4,4.1,4.9,4.4c5,0.6,10.1-5.3,14.6-16.7
							C2019.9,2238.4,2012.4,2239.7,2007.5,2243.2z"/><path fill="#333" d="M2036.9,2251c0.1,0,0.2-0.1,0.4-0.2c1.3-0.7,1.8-2.4,1.1-3.7l-7.5-13.4c-0.7-1.3-2.4-1.8-3.7-1.1
						c-1.3,0.7-1.8,2.4-1.1,3.7l7.5,13.4C2034.2,2251,2035.6,2251.5,2036.9,2251z"/><polygon fill="#f7c19b" points="2491.5 2149.9 2481.9 2120.3 2413.6 2055.1 2366.8 2117.3 2438 2181.5 2459.2 2186.8 2472.1 2190.3"/><path fill="#414042" d="M2405.3,2303.9c4.1,5.5,12.2,5.8,16.9,0.8l118.1-129.9c2.7-3,2.3-7.7-0.9-10.1l-3-2.3l-4.4-3.4l-50.1-38.6
						l-6.4,33.5c-1.6,8.2-7.3,15-15.1,17.8l-20.7,7.6l-44.9,59.9c-11.3,15.1-11.3,35.9,0.1,50.9l7.1,9.4L2405.3,2303.9
						L2405.3,2303.9z"/><polygon fill="#333" points="2405.3 2303.9 2536.4 2162.3 2532 2159 2401.9 2299.5"/><path fill="#333" d="M2441.5,2181.3c-14.7,14-26.7,9.9-32.6,6.2c-4-2.5-6-7.1-5.1-11.8c0.9-4.6,4.5-8.1,9.1-8.9
							c12.7-2.2,27.8,9.8,28.4,10.3c0.6,0.5,1,1.2,1,2c0,0.3,0,0.5-0.1,0.8C2442.2,2180.4,2441.9,2180.9,2441.5,2181.3z
							 M2409.2,2176.8c-0.4,1.9,0.1,4.5,2.6,6.1c7.3,4.6,15.2,3.5,23.4-3.3c-4.5-3.1-13.9-8.5-21.4-7.3c-2.7,0.5-4.1,2.4-4.6,4.2
							C2409.3,2176.6,2409.2,2176.7,2409.2,2176.8z"/><path fill="#333" d="M2449.1,2209.5c-3.2,3.5-7.9,4.6-12.4,2.9c-4.7-1.8-7.8-6.2-7.9-11.3c-0.1-10.9,8.2-22.9,8.6-23.4
							c0.5-0.7,1.3-1.2,2.2-1.2c0.9,0,1.7,0.4,2.2,1.1c8.3,11.4,11.6,20.4,10,26.8C2451.4,2206.4,2450.5,2208.1,2449.1,2209.5z
							 M2434.3,2201.1c0,3.4,2.4,5.5,4.4,6.2c2.3,0.9,4.7,0.3,6.4-1.5c3.4-3.7,1.5-11.3-5.3-21.6
							C2437.5,2188.3,2434.2,2195.1,2434.3,2201.1z"/><g><path fill="#333" d="M2457.6,2181.6c0-0.1,0.1-0.3,0.1-0.4c0.2-1.5-0.9-2.9-2.4-3l-15.3-1.6c-1.5-0.2-2.9,0.9-3,2.4
						c-0.2,1.5,0.9,2.9,2.4,3l15.3,1.6C2456,2183.8,2457.3,2182.9,2457.6,2181.6z"/></g><g><path fill="#5c82e0" d="M2008.9,2178.2l116.2,15.8l4-27l0.3-2.7l34.3-224l193.1,195.2l2.8,2.6l19.9,19.1l81.9-78.4l-21.1-21.7
				l-2.6-2.7L2314,1930.6c-31.2-32.4-49.7-74.9-52.3-119.8l-12.9-132.2l-167.5-2.1l-69.1,476.8l-0.5,3.7L2008.9,2178.2z"/><path fill="#4876d3" d="M2356.8,2135.5l2.8,2.6c24.4-22.4,58-56.7,80.6-81l-2.6-2.7c-10.3,9.5-26,25.1-36,34.9
						c-0.1,0-0.1,0.1-0.1,0.1C2387.8,2102.7,2369.9,2121.5,2356.8,2135.5z"/><path fill="#4876d3" d="M2403.6,2091.2c-61.8-61.2-128.7-127.7-189.3-180.9c-1.9-26.5-6.3-80-8.8-106.5
						c0.7,26.7,2.7,80.2,4.1,106.8C2273.3,1973.8,2336.3,2031.3,2403.6,2091.2L2403.6,2091.2z"/><path fill="#4876d3" d="M2011.7,2157c34.6,4.4,82.6,8.9,117.4,10l0.3-2.7c-17.4-2.5-41.3-4.4-58.8-6c-0.1,0-0.1,0-0.2,0
						c-17.1-1.6-41.1-4.3-58.2-5L2011.7,2157z"/><path fill="#4876d3" d="M2070.1,2161.1c15.8-79.9,27.8-160.4,36.1-241.4C2090.4,1999.6,2078.4,2080.1,2070.1,2161.1
						L2070.1,2161.1z"/><path fill="#4876d3" d="M2163.7,1940.3c-2.5-60-16.2-133.1-22.7-193c-1.3-10.4-2.4-20.5-3.9-31c-2.1-11.2-12.4-16.9-20.7-23.1
					c0,0,11.4,10.5,11.4,10.5c3.5,3.6,5.8,8.3,6.5,13.1l2.3,30.9C2141.6,1807.9,2154.8,1880.9,2163.7,1940.3L2163.7,1940.3z"/></g><path fill="#f7c19b" d="M2347.8,1687.5c0,0,42.8,57,17.5,62.2c0,0,0.2,13.4-11.6,10.2c0,0-1.5,11.8-12.2,8.7c0,0-8,16.4-18.3-8.5
			c-0.8-2-2.7-3.4-4.8-3.7l-2.5-0.3c-6.2-0.7-10.4-6.6-9.2-12.7l2.6-12.8c1.7-8.5,0.4-17.3-3.7-24.9l-0.6-1L2347.8,1687.5z"/><g><path fill="#f7c19b" d="M2117.3,1406.9c15.6,27.1,29.5,2.3,42.2-28.6l0.3-23.8l-40.8,2.7l-0.8,19.6l-0.4,10.1L2117.3,1406.9z"/><path fill="#f7c19b" d="M2096.6,1296.5c0,0-15.1,41.7-2.2,65.9c6.7,12.5,21.8,17.7,34.8,12.3c9.9-4.1,24.5-12.1,36.1-26.5
					c1-1.2-1.2-39.2-1.2-39.2l-8.7-13.1l-33.8-5.3L2096.6,1296.5z"/><path fill="#414042" d="M2131.7,1331.7l5.4-14.6c0,0-4.5,1.7-9.9,2.4c-7.9,1.1-15.1-4.6-16.2-12.6l-0.3-2c0,0-34.6-2.4-21.2-33.7
					c1.7-4,5.1-6.9,9.2-8.1c7.1-2,19.5-2.7,36.1,7.5c4.8,3,10.9,2.2,16.2,0.3c5.7-2.1,14.4-1.6,20,15.6c1,3,2.4,5.8,4.3,8.3
					c5.4,7.3,21.1,34.4-14.3,65.6c-1,0.9-2.5,0.1-2.4-1.2c0.5-6.8,0.9-21.5-3.2-29.3c-2.6-4.8-9.1-5.4-12.5-1.1l-5,6.4
					c-1.2,1.5-3.3,1.8-4.8,0.7l0,0C2131.7,1334.9,2131.2,1333.2,2131.7,1331.7z"/><path fill="#e0af8d" d="M2117.9,1386.9c22.7-3.2,33.4-21.9,33.4-21.9c-13.4,12.2-29.4,11.9-33,11.7L2117.9,1386.9z"/><path fill="#414042" d="M2140.5,1331.7c-6.8,12.6-8.3,24.9-9.7,37.2c-0.7,6.3-6.4,10.7-12.7,9.8h0c-18.1-2.7-31-19-29.5-37.2
				l0.5-6.2l33.9,9.5c4.5-5.1,7.8-11.6,10.7-18.5L2140.5,1331.7z"/></g><g><path fill="#4876d3" d="M2134.9,1415.9l-20-12.5c-34.8,54-37.6,169.3-33.6,273c7,15.9,39.4,10.6,59.6,1.5l27.2-197.3L2134.9,1415.9
				z"/><path fill="#fff" d="M2159.5,1378.2c53,32.3,79.9,97.3,82.9,201.2l7.3,101.9c0,0,8.1,11.1-93.3,19.9c-12.4,1.1-24.6-3.4-27-15.6
				c-18-90-28-181.7-14.5-282.2L2159.5,1378.2z"/></g><g><path fill="#fff" d="M2193.8,1408.6c0,0,42.9,50.5,58.5,78l43.9,77.8c3.4,6,6.5,12.2,9.3,18.6l47.1,103.7
					c0,0-11.4,23.9-47.5,24.1l-81.8-151.1l-63.5-88.7L2193.8,1408.6z"/><path fill="#e0e0e0" d="M2172.9,1420.5c-11.6,8.2-13.2,23.9-11.7,37c3.7,23.6,16.5,44.3,29.8,63.6c9.8,13.6,20.9,26.2,32.4,38.4
				c-10.3-13.2-20.9-26.1-30.3-39.9C2176.7,1495,2146.4,1446.7,2172.9,1420.5L2172.9,1420.5z"/></g><path fill="#fcbe6a" d="M2253.5,1649.7l-7.2,26.4l-28.1-7.4c0,0-6.5-39.1-79.5-95.9c-12.4-9.7-23.6-20.9-32.9-33.7
			c-18.9-26.1-21.8-71.8-1.2-116.1l8.8-7.3c-29,46.1-6.1,105.3,58.7,148.4c4.6,3.1,9.5,5.8,14.3,8.6
			C2217.3,1590.6,2239.2,1616.7,2253.5,1649.7z"/><polygon fill="#fcbe6a" points="2104.6 1422.9 2110.5 1407.8 2114.9 1403.5 2113.4 1415.6 2107.7 1426.5"/></g><g><path fill="#575763" d="M1802.5,1430.3L1802.5,1430.3c-6-1.1-9.7-7.2-8-13.1l81.2-276.6l12.9,2.5l-74.1,279.7
			C1813,1428,1807.8,1431.3,1802.5,1430.3z"/><polygon fill="#f05575" points="1656.8 910.5 2177.5 1028.1 2122.7 1209.8 1640.2 1119.8"/><path fill="#fff" d="M1658.1,1109.1l14.3-180.9l5.2,1.2l479.3,108.2l-47,155.8L1658.1,1109.1z M1681,937.9l-13.1,165.4l435,81.2
					l42.7-141.7L1681,937.9z"/></g><path fill="#f7c19b" d="M1826.5,1299.5c-8.7-8.7-13-17.6-4.7-23.9c0,0-6.3-12.8,6.6-15.1c0,0-3.9-12,7.7-13.9c0,0,0.2-16.6,16.9-3.9
		c0.5,0.3,0.8,0.9,0.8,1.5C1855,1261.8,1852.4,1289.7,1826.5,1299.5z"/><g><path fill="#fff" d="M1740.7,1042.9l8.6,5.5c-2.7,6.3-6,10.8-9.9,13.3s-8.4,3.4-13.5,2.4c-6.3-1.2-10.9-4.9-13.9-11.1
			c-3-6.2-3.6-14.1-1.8-23.6c1.9-10,5.4-17.5,10.5-22.2c5.1-4.8,11-6.6,17.6-5.3c5.8,1.1,10.1,4.2,12.9,9.2c1.7,3,2.6,7,2.7,12
			l-10,1.1c0-3.2-0.7-5.9-2.1-8.1c-1.4-2.1-3.4-3.5-6-3.9c-3.5-0.7-6.7,0.4-9.5,3.2c-2.8,2.8-4.9,7.8-6.2,15
			c-1.4,7.6-1.4,13.3,0.1,16.9c1.5,3.6,4,5.8,7.5,6.4c2.5,0.5,4.9-0.1,7.1-1.8C1737.1,1050.2,1739,1047.2,1740.7,1042.9z"/><path fill="#fff" d="M1757.7,1038.2c1.2-6.1,2.9-11.2,5.1-15.1c1.7-2.9,3.6-5.4,6-7.4c2.3-2.1,4.7-3.5,7.1-4.3
			c3.2-1,6.8-1.2,10.7-0.5c7,1.3,12,5.1,15.2,11.4c3.1,6.3,3.8,14.4,1.9,24.2c-1.8,9.7-5.4,17-10.6,21.7c-5.2,4.7-11.3,6.4-18.2,5.1
			c-7-1.3-12.1-5.1-15.2-11.4C1756.5,1055.8,1755.8,1047.8,1757.7,1038.2z M1767.6,1039.7c-1.3,6.8-1,12.2,0.8,16.2
			c1.8,4,4.6,6.4,8.4,7.1c3.8,0.7,7.3-0.4,10.4-3.5c3.1-3,5.3-8.1,6.6-15.1c1.3-6.9,1.1-12.3-0.6-16.2c-1.7-3.9-4.6-6.2-8.5-6.9
			c-3.9-0.7-7.4,0.4-10.5,3.4C1771.1,1027.8,1768.9,1032.7,1767.6,1039.7z"/><path fill="#fff" d="M1805.2,1078.1l11.4-60.3l14.3,2.7l0.8,42.8l16.3-39.6l14.3,2.7l-11.4,60.3l-8.9-1.7l9-47.5l-18.4,45.7
			l-9.2-1.7l-0.4-49.3l-9,47.5L1805.2,1078.1z"/><path fill="#fff" d="M1860.5,1088.6l11.4-60.3l15.3,2.9c5.8,1.1,9.5,2.1,11.2,3.1c2.5,1.4,4.4,3.8,5.7,7.2
			c1.3,3.4,1.4,7.5,0.5,12.3c-0.7,3.7-1.8,6.7-3.3,9c-1.5,2.3-3.2,4.1-5.1,5.2c-1.9,1.1-3.7,1.8-5.5,1.9c-2.4,0.1-5.7-0.2-10.1-1
			l-6.2-1.2l-4.3,22.8L1860.5,1088.6z M1879.5,1040.2l-3.2,17.1l5.2,1c3.8,0.7,6.3,0.9,7.7,0.5c1.4-0.4,2.6-1.2,3.5-2.4
			c1-1.2,1.6-2.7,2-4.5c0.4-2.2,0.3-4.1-0.5-5.7c-0.7-1.6-1.9-2.8-3.3-3.4c-1.1-0.5-3.4-1.1-6.8-1.7L1879.5,1040.2z"/><path fill="#fff" d="M1904.8,1097l11.3-59.9l9.6,1.8l-9.4,49.7l23.8,4.5l-1.9,10.2L1904.8,1097z"/><path fill="#fff" d="M1987.6,1112.6l-10.4-2l-1.5-14.5l-18.9-3.6l-6.5,13l-10.1-1.9l29.9-56.9l10.1,1.9L1987.6,1112.6z
			 M1974.5,1085.4l-2.3-23.6l-10.6,21.2L1974.5,1085.4z"/><path fill="#fff" d="M1992.4,1113.5l11.4-60.3l9.6,1.8l-11.4,60.3L1992.4,1113.5z"/><path fill="#fff" d="M2011.1,1117.1l11.4-60.3l9.3,1.8l11.7,44l7.6-40.3l8.9,1.7l-11.4,60.3l-9.6-1.8l-11.6-43l-7.4,39.4
			L2011.1,1117.1z"/><path fill="#fff" d="M2069.5,1128.1l9.5-50.1l-14-2.7l1.9-10.2l37.6,7.1l-1.9,10.2l-14-2.7l-9.5,50.1L2069.5,1128.1z"/></g></svg>