<svg width="41" height="26" viewBox="0 0 41 26" fill="none" xmlns="http://www.w3.org/2000/svg">
<g clip-path="url(#clip0_3937_74483)">
<path d="M41 0H0V26H41V0Z" fill="white"/>
<path d="M34.4376 8.13701C34.4495 8.28606 34.4674 8.41213 34.4683 8.53835C34.4717 9.01846 34.4741 9.49872 34.4665 9.97876C34.4647 10.0969 34.5069 10.1404 34.6151 10.1476C34.8046 10.1602 34.9937 10.1852 35.1833 10.1888C35.5936 10.1968 35.862 10.0007 35.9728 9.60688C36.0739 9.24751 36.0716 8.8825 35.9761 8.52201C35.9191 8.30654 35.8017 8.11899 35.5816 8.04769C35.1844 7.91905 34.7983 7.99288 34.4376 8.13701ZM37.1244 9.43705C37.1012 9.53294 37.0792 9.62909 37.0547 9.72463C36.8245 10.6204 36.0889 11.1619 35.1259 11.1374C34.7588 11.128 34.3998 11.0733 34.047 10.9575C33.9279 10.9185 33.7786 10.9709 33.6432 10.9827C33.4639 10.9983 33.2847 11.0287 33.1055 11.0291C31.4207 11.0327 29.7359 11.0312 28.0511 11.0312H27.8669C27.9091 10.753 27.9487 10.4913 27.987 10.2381H30.1029C30.0897 10.2541 30.1003 10.2472 30.1002 10.2406C30.0914 9.72279 30.0858 9.20486 30.0688 8.68735C30.0656 8.59105 30.0241 8.4929 29.9864 8.40135C29.8507 8.07224 29.6026 7.90348 29.2447 7.90218C28.9639 7.90114 28.6831 7.90183 28.4023 7.90175C28.3516 7.90175 28.3009 7.90175 28.2344 7.90175C28.2715 7.64091 28.3031 7.40154 28.3428 7.16352C28.3476 7.13476 28.3964 7.09119 28.4241 7.09168C28.8992 7.10058 29.3803 7.0727 29.8479 7.13882C30.5482 7.23785 31.0536 7.79766 31.1757 8.54379C31.2207 8.81902 31.2242 9.10199 31.2337 9.3819C31.243 9.6521 31.2357 9.92288 31.2357 10.2037C31.2863 10.2075 31.3273 10.2133 31.3683 10.2133C31.9775 10.2139 32.5867 10.21 33.1958 10.2168C33.3214 10.2182 33.3691 10.1633 33.3818 10.0565C33.3908 9.98118 33.3919 9.90458 33.3921 9.82853C33.3929 9.31931 33.3918 8.81005 33.3927 8.30082C33.3937 7.70807 33.6358 7.36507 34.2026 7.18849C34.4276 7.11838 34.6648 7.08678 34.8964 7.03764H35.382C35.4182 7.04716 35.454 7.06069 35.4909 7.06564C36.2666 7.16954 36.8327 7.66434 37.0392 8.42221C37.0714 8.54046 37.0962 8.66073 37.1244 8.78005V9.43705Z" fill="#231F20"/>
<path d="M27.4681 7.10708C27.4272 7.37437 27.3878 7.63233 27.3455 7.90894H27.1748C26.4607 7.90894 25.7467 7.9084 25.0327 7.90952C24.9329 7.90967 24.8322 7.91101 24.7334 7.92332C24.4415 7.95968 24.2868 8.14186 24.3002 8.4248C24.3135 8.70466 24.4882 8.89033 24.7703 8.89816C25.1318 8.90813 25.4939 8.89758 25.8555 8.90545C26.0163 8.90894 26.1798 8.92098 26.3366 8.95458C26.9353 9.08287 27.3153 9.56168 27.3065 10.1748C27.3043 10.3305 27.2879 10.4898 27.2505 10.6406C27.1289 11.1306 26.7704 11.3668 26.3061 11.4582C26.0697 11.5046 25.8249 11.5277 25.5838 11.5282C23.9987 11.5315 22.4135 11.5349 20.8285 11.5196C19.8399 11.51 19.1859 10.8679 19.1298 9.8827C19.1022 9.39818 19.0795 8.91189 19.2146 8.43634C19.4379 7.65024 20.0519 7.17148 20.8705 7.15698C21.3696 7.14812 21.8689 7.15533 22.3788 7.15533C22.3387 7.42891 22.3003 7.69094 22.2592 7.97119C22.0672 7.97119 21.878 7.9708 21.6889 7.9713C21.5033 7.9718 21.3174 7.96793 21.132 7.97545C20.7965 7.9891 20.5461 8.15026 20.4191 8.45859C20.3481 8.63106 20.2993 8.82406 20.2934 9.0095C20.2823 9.35491 20.2778 9.70642 20.3296 10.0464C20.3895 10.4395 20.6596 10.6727 21.0543 10.6966C21.5192 10.7246 21.9864 10.7171 22.4527 10.7187C23.4761 10.7224 24.4995 10.7224 25.523 10.7228C25.5987 10.7228 25.676 10.7211 25.7501 10.7072C26.0597 10.6493 26.237 10.4208 26.2114 10.1199C26.1861 9.82175 25.9729 9.62918 25.6545 9.62362C25.2072 9.61583 24.7592 9.626 24.3128 9.60283C23.783 9.57537 23.3992 9.27732 23.2612 8.82364C23.1014 8.29815 23.2475 7.74467 23.6299 7.44678C23.935 7.2091 24.2963 7.11065 24.6706 7.10386C25.5843 7.08733 26.4983 7.09496 27.4122 7.09339C27.4258 7.09335 27.4393 7.09979 27.4681 7.10708Z" fill="#231F20"/>
<path d="M35.6232 16.7215C35.622 16.7157 35.6208 16.7099 35.6196 16.7041C35.4144 16.7328 35.2034 16.7408 35.0057 16.7961C34.8007 16.8535 34.7056 17.0461 34.7241 17.2696C34.7401 17.4611 34.8539 17.6162 35.0607 17.6355C35.2732 17.6552 35.4948 17.6377 35.7059 17.6001C36.0594 17.5371 36.0594 17.5249 36.0561 17.1624C36.0548 17.0221 36.0912 16.8368 36.0179 16.7555C35.9534 16.6838 35.7598 16.7283 35.6232 16.7215ZM37.1244 18.4631C36.7693 18.3988 36.415 18.3285 36.0583 18.2741C35.9592 18.259 35.8516 18.2838 35.7502 18.3025C35.3173 18.3826 34.885 18.4341 34.4499 18.3192C33.9335 18.1829 33.6401 17.8195 33.6224 17.2934C33.6042 16.748 33.8561 16.3572 34.3832 16.21C34.6948 16.1229 35.0267 16.1005 35.3514 16.0704C35.5724 16.05 35.7968 16.0665 36.017 16.0665C36.1238 15.6138 35.9152 15.3312 35.4653 15.3233C34.9699 15.3147 34.4941 15.4263 34.0284 15.5866C33.9843 15.6018 33.9392 15.6145 33.8811 15.6326C33.8411 15.3617 33.8026 15.1008 33.7625 14.8298C34.5323 14.583 35.2971 14.3609 36.1123 14.5236C36.7072 14.6424 37.023 14.985 37.0991 15.5826C37.1038 15.6197 37.1158 15.6558 37.1244 15.6924V18.4631Z" fill="#231F20"/>
<path d="M24.6302 18.3385H23.5098V18.163C23.5098 17.449 23.51 16.7349 23.5094 16.0208C23.5093 15.9447 23.5092 15.8681 23.5002 15.7927C23.4743 15.5767 23.3343 15.4299 23.1236 15.4071C22.8674 15.3793 22.6222 15.4229 22.4191 15.5279C22.4265 15.8423 22.4378 16.1389 22.4395 16.4356C22.4426 17.0164 22.4404 17.5972 22.4404 18.178V18.3386H21.3226V18.1743C21.3226 17.4602 21.3159 16.7461 21.3248 16.0321C21.3317 15.4762 21.0825 15.3317 20.562 15.4231C20.2498 15.4779 20.2512 15.486 20.2512 15.7983C20.2512 16.5837 20.2512 17.3692 20.2512 18.1547V18.3336H19.1142V18.1615C19.1142 17.2379 19.1139 16.3144 19.1144 15.3909C19.1146 14.9226 19.2335 14.7644 19.6874 14.6402C20.2483 14.4866 20.8171 14.4115 21.3943 14.5266C21.5499 14.5576 21.7015 14.6249 21.8442 14.6967C21.9204 14.7351 21.9742 14.7432 22.052 14.7104C22.602 14.4788 23.1703 14.4076 23.7544 14.5504C24.2671 14.6756 24.5882 15.0361 24.6071 15.5622C24.6333 16.2944 24.6245 17.0278 24.63 17.7607C24.6313 17.9502 24.6302 18.1396 24.6302 18.3385Z" fill="#231F20"/>
<path d="M31.8588 16.4637V15.9075C31.8588 15.3977 31.8588 15.3977 31.3433 15.352C30.9448 15.3167 30.6546 15.5099 30.5533 15.8953C30.4598 16.2507 30.4603 16.6114 30.5557 16.9665C30.6618 17.3609 30.9319 17.5601 31.3402 17.5525C31.4629 17.5502 31.5849 17.5231 31.7077 17.5137C31.8235 17.5048 31.8665 17.4567 31.8621 17.3335C31.8519 17.0439 31.8588 16.7536 31.8588 16.4637ZM31.8588 14.6382C31.8588 14.5723 31.8588 14.5219 31.8588 14.4715C31.8589 14.0052 31.86 13.5389 31.8579 13.0726C31.8575 12.998 31.8672 12.9466 31.9558 12.9324C32.2933 12.8783 32.6301 12.8195 32.9882 12.7589V12.9195C32.9882 14.4517 32.9886 15.9838 32.988 17.516C32.9878 17.9548 32.8917 18.0888 32.4737 18.2173C31.9288 18.3848 31.3708 18.4256 30.8088 18.3419C29.9964 18.221 29.4532 17.6094 29.3883 16.7562C29.3605 16.3897 29.3719 16.025 29.4671 15.6656C29.6581 14.9445 30.1716 14.5165 30.9159 14.5014C31.1686 14.4963 31.4229 14.5568 31.676 14.5904C31.7307 14.5976 31.7836 14.6181 31.8588 14.6382Z" fill="#231F20"/>
<path d="M27.6898 16.7501C27.3636 16.7501 27.0634 16.7306 26.7671 16.7558C26.4966 16.7789 26.3422 16.99 26.3553 17.2491C26.3675 17.4893 26.5415 17.6708 26.8136 17.6576C27.0858 17.6444 27.3556 17.5759 27.6254 17.526C27.6507 17.5214 27.6864 17.4765 27.687 17.4496C27.6919 17.2174 27.6898 16.985 27.6898 16.7501ZM27.6667 16.0679C27.7036 15.4965 27.5272 15.3082 26.9824 15.3235C26.5317 15.3361 26.0972 15.4375 25.6724 15.5842C25.6281 15.5995 25.5831 15.6128 25.5177 15.6337C25.4813 15.3783 25.4441 15.1312 25.4137 14.8833C25.4109 14.86 25.4463 14.816 25.4723 14.8077C26.0853 14.6109 26.7033 14.4385 27.3573 14.4723C27.4569 14.4774 27.5569 14.4876 27.6552 14.5046C28.3912 14.632 28.7397 15.0357 28.7457 15.7877C28.7525 16.6446 28.7474 17.5016 28.7473 18.3585C28.7473 18.3867 28.7444 18.4149 28.7419 18.4592C28.6165 18.4379 28.4953 18.4256 28.3785 18.3959C27.9214 18.2796 27.4684 18.2563 27.0003 18.3566C26.6648 18.4284 26.3176 18.4041 25.9856 18.2895C25.5223 18.1295 25.2716 17.7847 25.2571 17.2899C25.2422 16.7853 25.4618 16.4306 25.913 16.2404C26.2207 16.1106 26.5475 16.0772 26.8768 16.0692C27.1372 16.0629 27.3979 16.0679 27.6667 16.0679Z" fill="#231F20"/>
<path d="M2.87549 7.03757H17.3577V11.8364H2.87549V7.03757Z" fill="#289BD7"/>
<path d="M2.87549 13.5791H17.3577V18.3779H2.87549V13.5791Z" fill="#86B840"/>
</g>
<defs>
<clipPath id="clip0_3937_74483">
<rect width="41" height="26" fill="white"/>
</clipPath>
</defs>
</svg>
