<svg width="34" height="17" viewBox="0 0 34 17" fill="none" xmlns="http://www.w3.org/2000/svg">
    <g id="Group">
    <rect id="Rectangle" x="12.75" y="1.41667" width="8.5" height="12.75" fill="#FF5F00"/>
    <path id="Path" d="M13.9902 7.79167C13.988 5.40092 15.0979 3.14199 17 1.66595C13.7691 -0.845002 9.12913 -0.479542 6.34106 2.50548C3.55298 5.49051 3.55298 10.0928 6.34106 13.0778C9.12913 16.0629 13.7691 16.4283 17 13.9174C15.0979 12.4413 13.988 10.1824 13.9902 7.79167Z" fill="#EB001B"/>
    <path id="Path_2" d="M29.75 7.79167C29.7501 10.7747 28.0276 13.4959 25.3139 14.7997C22.6003 16.1035 19.372 15.7609 17 13.9174C18.9004 12.44 20.0099 10.1819 20.0099 7.79167C20.0099 5.40141 18.9004 3.14337 17 1.66591C19.372 -0.177548 22.6003 -0.520141 25.3139 0.783628C28.0276 2.0874 29.7501 4.80864 29.75 7.79167Z" fill="#F79E1B"/>
    </g>
    </svg>
