<svg version="1.1" id="Layer_1" xmlns="http://www.w3.org/2000/svg" xmlns:xlink="http://www.w3.org/1999/xlink" x="0px" y="0px"
	 width="100%" viewBox="0 0 1250 834" enable-background="new 0 0 1250 834" xml:space="preserve">
<path fill="#FFFFFF" opacity="1.000000" stroke="none" 
	d="
M757.000000,835.000000 
	C504.696808,835.000000 252.893646,835.000000 1.045234,835.000000 
	C1.045234,557.063477 1.045234,279.126892 1.045234,1.095168 
	C417.553314,1.095168 834.106689,1.095168 1250.830078,1.095168 
	C1250.830078,278.999908 1250.830078,556.999939 1250.830078,835.000000 
	C1086.459961,835.000000 921.979980,835.000000 757.000000,835.000000 
M187.010635,622.010681 
	C187.010635,622.010681 187.058029,622.089478 187.663162,621.830017 
	C188.813629,620.900757 189.964111,619.971497 191.723495,618.772827 
	C200.835953,610.220947 207.516663,600.155640 211.064606,588.078064 
	C213.216660,580.752380 213.849121,573.235291 214.932434,565.762634 
	C216.226242,556.838013 214.499023,548.656494 213.968887,540.159973 
	C213.881226,538.754700 213.226181,537.384766 212.969788,535.200623 
	C211.463577,530.901428 209.957352,526.602295 208.754669,521.600525 
	C208.519257,521.163147 208.250900,520.740112 208.053177,520.286316 
	C200.946213,503.973969 190.143616,491.319550 172.780045,484.330933 
	C172.187164,484.276184 171.594299,484.221405 170.400085,483.885315 
	C169.615326,483.553314 168.830551,483.221313 167.780045,482.330933 
	C167.187164,482.276184 166.594299,482.221405 165.250061,481.785522 
	C156.172913,480.190369 147.145538,478.147766 138.004074,477.130798 
	C129.510925,476.185944 120.898254,476.147369 112.334290,476.048676 
	C100.891823,475.916718 89.445580,476.111877 77.415993,476.156738 
	C76.944977,476.493378 76.473969,476.830017 75.153679,477.027710 
	C73.436104,477.074005 71.718536,477.120300 69.415993,477.156738 
	C68.944977,477.493378 68.473969,477.830017 67.340111,478.032318 
	C66.893730,478.077087 66.447350,478.121826 65.269814,478.274445 
	C61.041225,480.261780 56.812634,482.249084 52.391479,484.363464 
	C52.391479,484.363464 52.241703,484.538940 51.722046,484.814545 
	C50.784901,485.523651 49.847755,486.232727 48.989357,486.989197 
	C48.989357,486.989197 48.941944,486.910492 48.336861,487.169952 
	C47.186417,488.099182 46.035973,489.028412 44.278904,490.225037 
	C42.816101,492.134399 41.353298,494.043762 39.344280,496.165527 
	C38.858036,496.762878 38.371796,497.360260 37.257771,498.318787 
	C29.560421,509.993439 28.821768,523.016418 28.879969,536.547607 
	C29.150921,599.540833 28.997845,662.535889 29.007065,725.530273 
	C29.007479,728.359802 29.111092,731.189270 29.118052,734.522217 
	C29.404926,734.625977 29.691801,734.729675 30.909357,734.973083 
	C46.612537,734.926575 62.315720,734.880005 78.522316,734.881897 
	C78.625999,734.595032 78.729691,734.308105 78.973061,733.090576 
	C79.012680,702.746887 79.052299,672.403198 79.007484,642.007629 
	C79.007484,642.007629 79.059639,642.091858 79.986595,642.014709 
	C95.724777,641.676758 111.461571,641.214905 127.201569,641.038757 
	C140.579788,640.889099 153.442642,638.259277 166.621704,633.813293 
	C167.429810,633.245667 168.237915,632.677979 169.697800,632.013855 
	C170.131531,631.953735 170.565277,631.893555 171.691269,631.756836 
	C173.935333,630.421448 176.179413,629.086060 178.613312,627.624695 
	C178.613312,627.624695 178.762329,627.452393 179.305176,627.168091 
	C180.678253,626.361633 182.051315,625.555176 183.608536,624.624878 
	C183.608536,624.624878 183.758316,624.461121 184.277939,624.185547 
	C185.215088,623.476379 186.152237,622.767273 187.010635,622.010681 
M763.002686,313.497803 
	C768.021973,310.843323 773.041199,308.188812 778.000000,305.566315 
	C778.000000,303.668854 778.000000,302.173584 778.000000,300.678314 
	C778.000000,208.529495 778.000610,116.380676 777.999023,24.231853 
	C777.998901,16.943577 774.996582,14.000811 767.568176,14.000724 
	C673.253113,13.999625 578.938049,13.999752 484.622955,14.000460 
	C476.906158,14.000518 474.000641,16.882908 474.000549,24.540636 
	C473.999695,116.522820 473.999969,208.505005 474.000122,300.487183 
	C474.000122,301.487000 473.757690,302.571106 474.066101,303.464813 
	C474.435059,304.533875 475.056610,305.784027 475.951813,306.354279 
	C478.974823,308.279846 482.131500,310.006958 485.301788,311.687805 
	C496.267609,317.501617 507.245789,323.292603 518.249268,329.034760 
	C524.666809,332.383759 531.141479,335.623260 537.670044,338.952576 
	C537.670044,261.761566 537.670044,185.023819 537.670044,107.760086 
	C527.617554,107.760086 517.886658,107.760086 508.258972,107.760086 
	C508.258972,90.296425 508.258972,73.361176 508.258972,56.000000 
	C510.304901,56.000000 512.097656,56.000000 513.890381,56.000000 
	C545.217651,56.000000 576.545532,55.879070 607.871948,56.042469 
	C628.800049,56.151630 649.766296,55.982838 670.640137,57.214718 
	C687.221497,58.193268 701.804443,65.466660 714.090576,76.666245 
	C734.277954,95.068283 743.218628,118.969009 745.834351,145.408646 
	C747.083862,158.038101 746.119751,170.810028 742.976379,183.240799 
	C737.612793,204.451340 728.300781,223.307877 710.993225,237.574066 
	C696.835327,249.244019 680.523865,255.382187 662.434326,255.859314 
	C640.120911,256.447845 617.780029,256.000000 595.451050,256.000000 
	C593.699890,256.000000 591.948792,256.000000 590.001160,256.000000 
	C590.001160,292.554535 589.957458,328.369751 590.148438,364.183685 
	C590.156738,365.747559 591.984375,367.900482 593.530884,368.760162 
	C603.522888,374.314331 613.635132,379.658142 623.817322,384.856598 
	C625.091064,385.506897 627.270874,385.431213 628.582397,384.783661 
	C635.607605,381.315216 642.488342,377.554382 649.423157,373.902557 
	C663.303406,366.593384 677.211670,359.336792 691.062744,351.972839 
	C714.852783,339.324799 738.607849,326.611053 763.002686,313.497803 
M1072.081299,609.266663 
	C1071.385986,605.425781 1070.956299,601.513611 1069.947510,597.756897 
	C1066.342163,584.329834 1060.147339,572.096985 1050.433960,562.178528 
	C1042.885986,554.471191 1033.822144,548.459900 1023.716248,544.324341 
	C1006.330200,537.209656 988.341858,534.879395 969.885254,538.686401 
	C963.143616,540.076965 956.679016,542.810974 949.773560,545.033325 
	C949.773560,518.325134 949.773560,491.276672 949.773560,464.375244 
	C933.931763,464.375244 918.541626,464.375244 903.000000,464.375244 
	C903.000000,466.742401 903.000000,468.734772 903.000000,470.727112 
	C903.000000,545.366089 902.940674,620.005066 903.049744,694.643921 
	C903.071716,709.684998 910.319946,721.253479 922.159546,729.973450 
	C930.826599,736.356995 940.771667,739.109436 951.553650,739.018311 
	C969.542419,738.866333 987.592834,739.870239 1005.367004,735.988953 
	C1031.644165,730.250854 1051.569702,715.946350 1063.609497,691.686646 
	C1071.725586,675.333191 1074.318604,657.486328 1074.806030,639.496033 
	C1075.071167,629.703308 1073.355835,619.857056 1072.081299,609.266663 
M820.942200,603.963135 
	C819.276428,603.996521 817.581299,603.840454 815.949524,604.093323 
	C803.546875,606.015625 791.185425,608.227905 778.754395,609.936890 
	C766.015015,611.688354 753.062378,612.536072 741.224121,618.081116 
	C726.830811,624.822876 715.767334,635.041748 709.942627,650.214417 
	C706.030396,660.405212 704.490234,670.727661 705.819458,681.814819 
	C707.803589,698.365295 714.036804,712.934326 726.924133,723.025635 
	C751.199768,742.034485 778.179321,744.317200 806.058960,731.263489 
	C812.816528,728.099548 818.710449,723.091125 825.180664,718.812317 
	C825.180664,724.021423 825.180664,729.300781 825.180664,734.717773 
	C840.537537,734.717773 855.596558,734.717773 871.000000,734.717773 
	C871.000000,732.637512 871.000000,730.835754 871.000000,729.033997 
	C871.000000,688.367981 871.084595,647.701538 870.909912,607.036255 
	C870.883362,600.850403 870.155273,594.563965 868.876587,588.508850 
	C866.274475,576.186646 860.364197,565.352600 850.602295,557.374756 
	C832.341309,542.451111 810.341797,538.144653 787.538757,537.056396 
	C768.864075,536.165039 750.667480,539.673828 732.648376,544.149963 
	C723.977295,546.303833 724.000000,546.395142 724.000000,555.465576 
	C724.000000,565.465454 723.990417,575.465271 724.010681,585.465149 
	C724.013611,586.911682 724.160034,588.357910 724.261108,590.183777 
	C727.080872,589.945007 729.641479,590.141113 731.941895,589.459290 
	C740.315430,586.977600 748.482666,583.715942 756.946228,581.639526 
	C774.189636,577.409241 791.421021,577.401489 807.809204,585.143372 
	C814.607239,588.354858 820.979980,592.702271 823.180176,600.695312 
	C823.405029,601.512573 822.256653,602.707825 820.942200,603.963135 
M374.999969,646.500000 
	C374.668793,629.575317 374.856140,612.620178 373.866852,595.734070 
	C372.784882,577.266663 363.837463,562.925598 348.337646,552.714355 
	C331.665436,541.730835 312.824036,537.966248 293.412048,537.197327 
	C282.596649,536.768982 271.611145,537.692749 260.869720,539.200195 
	C250.926651,540.595398 241.183792,543.489746 231.415222,545.969788 
	C230.092346,546.305664 228.170685,548.056580 228.151733,549.179688 
	C227.924789,562.631042 228.005127,576.087585 228.005127,590.566833 
	C231.718826,589.816528 234.893738,589.414795 237.918365,588.510376 
	C243.047089,586.976807 248.002777,584.831177 253.168762,583.461731 
	C271.977051,578.475708 290.839874,576.165283 309.515259,584.030029 
	C318.129944,587.657959 325.804840,592.369446 327.969910,602.983704 
	C326.875183,603.333374 325.860046,603.832703 324.798615,603.967651 
	C318.948822,604.711060 313.064301,605.208862 307.235107,606.081116 
	C292.381927,608.303833 277.538727,610.600647 262.715576,613.015381 
	C244.971130,615.905945 230.494659,624.314392 219.999786,639.082397 
	C208.829102,654.801453 207.807327,672.524597 211.459991,690.498901 
	C213.823196,702.127869 219.513062,712.784729 228.521347,720.833801 
	C239.311447,730.474854 251.889618,736.317444 266.602478,738.235107 
	C281.784210,740.213867 296.087799,738.359375 309.578888,731.594727 
	C316.437073,728.155884 322.578400,723.287292 329.191010,718.968933 
	C329.191010,724.041748 329.191010,729.314941 329.191010,734.691040 
	C344.571106,734.691040 359.622131,734.691040 375.000000,734.691040 
	C375.000000,705.422241 375.000000,676.461121 374.999969,646.500000 
M563.002686,574.449768 
	C566.903931,563.412170 570.805237,552.374634 574.825500,541.000366 
	C560.507324,541.000366 547.012451,541.074463 533.519775,540.936584 
	C530.888245,540.909668 529.815796,541.943481 528.989136,544.246094 
	C516.682983,578.523743 504.329498,612.784546 491.926697,647.027405 
	C489.395630,654.015442 486.616699,660.913696 483.558563,668.878052 
	C465.259552,625.671936 447.375275,583.445129 429.459381,541.143555 
	C412.143097,541.143555 394.871185,541.143555 377.350616,541.143555 
	C377.988007,543.040100 378.422821,544.792053 379.146027,546.415527 
	C387.301941,564.724670 395.601105,582.970520 403.665466,601.319641 
	C413.886566,624.575867 423.863556,647.939209 434.065033,671.204102 
	C441.851501,688.961487 449.878021,706.613647 457.660156,724.372925 
	C458.983429,727.392700 461.068604,731.134094 460.297638,733.824402 
	C457.662109,743.021240 454.171661,752.005981 450.516388,760.869080 
	C446.128418,771.508789 438.904510,779.076843 426.627563,779.990234 
	C420.212891,780.467529 413.780396,780.737793 407.351288,780.974854 
	C403.613251,781.112793 399.865997,781.000000 396.279541,781.000000 
	C396.279541,795.413574 396.279541,809.015503 396.279541,822.980530 
	C413.174957,823.077637 429.597046,822.494629 445.898956,818.221313 
	C466.232880,812.891052 480.028015,800.142761 487.574829,781.406067 
	C497.713196,756.235229 506.284332,730.433716 515.554443,704.912415 
	C527.544556,671.902832 539.546082,638.897278 551.573853,605.901367 
	C555.305603,595.663818 559.138550,585.463196 563.002686,574.449768 
M530.120178,476.784393 
	C530.120178,491.721771 530.120178,506.659149 530.120178,522.079285 
	C553.886047,522.079285 577.274658,522.079285 601.117432,522.079285 
	C601.117432,593.266724 601.117432,663.969116 601.117432,734.675293 
	C617.968750,734.675293 634.355957,734.675293 651.200989,734.675293 
	C651.200989,663.649353 651.200989,592.946960 651.200989,521.760986 
	C675.381348,521.760986 699.103088,521.760986 722.778320,521.760986 
	C722.778320,506.337219 722.778320,491.400787 722.778320,476.000000 
	C720.945251,476.000000 719.326355,476.000000 717.707458,476.000000 
	C701.881897,476.000000 686.056274,475.990295 670.230713,476.001831 
	C623.755371,476.035645 577.280029,476.077911 530.120178,476.784393 
M1207.000000,564.501465 
	C1207.000000,558.850098 1207.000000,553.198730 1207.000000,546.342102 
	C1194.275635,543.867981 1181.583984,541.336243 1168.866089,538.945068 
	C1155.505005,536.432983 1142.137207,536.058960 1128.753296,538.986694 
	C1113.133423,542.403442 1099.666992,549.820496 1090.286987,562.703735 
	C1079.815552,577.086365 1078.662354,593.436157 1083.717529,610.357056 
	C1088.160156,625.227661 1096.756592,636.582947 1111.304077,642.639709 
	C1124.171509,647.997131 1137.268433,652.801270 1150.200439,658.007507 
	C1157.243286,660.842834 1164.501953,663.402039 1171.040894,667.166809 
	C1180.338989,672.520203 1179.842896,680.817261 1173.398926,688.181641 
	C1167.567627,694.845947 1159.437256,696.163330 1151.663452,696.790161 
	C1134.017212,698.212952 1116.682495,695.488708 1099.722290,690.370789 
	C1094.424805,688.772217 1089.004883,687.579285 1083.002808,686.036621 
	C1083.002808,700.587280 1082.949951,713.561096 1083.094482,726.532654 
	C1083.107178,727.677612 1084.186279,729.544922 1085.146484,729.836243 
	C1102.228027,735.018250 1119.726440,738.654480 1137.539307,738.736328 
	C1149.231445,738.790039 1161.201416,737.428040 1172.570068,734.707397 
	C1188.669800,730.854675 1203.008057,722.964661 1212.943848,709.031433 
	C1223.622803,694.056335 1225.228882,677.059326 1221.695801,659.690979 
	C1218.256226,642.783508 1208.888062,629.710815 1192.477173,622.925354 
	C1178.852905,617.292114 1165.015747,612.163147 1151.197266,607.014038 
	C1143.114624,604.002197 1134.704712,601.817688 1128.529297,595.113159 
	C1125.473267,591.795227 1125.585938,589.015564 1128.630127,585.802307 
	C1133.834961,580.308472 1140.919189,579.747131 1147.557007,579.171082 
	C1161.744873,577.939819 1175.668945,580.482178 1189.373291,584.122681 
	C1195.039673,585.627991 1200.684082,587.216370 1207.000000,588.948242 
	C1207.000000,580.114136 1207.000000,572.807434 1207.000000,564.501465 
M687.005859,131.590958 
	C686.322693,130.314957 685.674683,129.018692 684.951050,127.766083 
	C677.437134,114.759056 666.120544,108.142761 651.141663,108.028000 
	C634.986816,107.904213 618.830261,108.000000 602.674438,108.000000 
	C599.232300,108.000000 595.790161,108.000000 592.321899,108.000000 
	C592.321899,140.285309 592.321899,171.991806 592.321899,204.000000 
	C612.604553,204.000000 632.567078,204.068771 652.528870,203.972290 
	C663.238708,203.920532 672.476440,199.682693 679.464111,191.861664 
	C693.521790,176.127304 695.824890,150.659698 687.005859,131.590958 
z"/>
<path fill="#257ECE" opacity="1.000000" stroke="none" 
	d="
M762.690186,313.711365 
	C738.607849,326.611053 714.852783,339.324799 691.062744,351.972839 
	C677.211670,359.336792 663.303406,366.593384 649.423157,373.902557 
	C642.488342,377.554382 635.607605,381.315216 628.582397,384.783661 
	C627.270874,385.431213 625.091064,385.506897 623.817322,384.856598 
	C613.635132,379.658142 603.522888,374.314331 593.530884,368.760162 
	C591.984375,367.900482 590.156738,365.747559 590.148438,364.183685 
	C589.957458,328.369751 590.001160,292.554535 590.001160,256.000000 
	C591.948792,256.000000 593.699890,256.000000 595.451050,256.000000 
	C617.780029,256.000000 640.120911,256.447845 662.434326,255.859314 
	C680.523865,255.382187 696.835327,249.244019 710.993225,237.574066 
	C728.300781,223.307877 737.612793,204.451340 742.976379,183.240799 
	C746.119751,170.810028 747.083862,158.038101 745.834351,145.408646 
	C743.218628,118.969009 734.277954,95.068283 714.090576,76.666245 
	C701.804443,65.466660 687.221497,58.193268 670.640137,57.214718 
	C649.766296,55.982838 628.800049,56.151630 607.871948,56.042469 
	C576.545532,55.879070 545.217651,56.000000 513.890381,56.000000 
	C512.097656,56.000000 510.304901,56.000000 508.258972,56.000000 
	C508.258972,73.361176 508.258972,90.296425 508.258972,107.760086 
	C517.886658,107.760086 527.617554,107.760086 537.670044,107.760086 
	C537.670044,185.023819 537.670044,261.761566 537.670044,338.952576 
	C531.141479,335.623260 524.666809,332.383759 518.249268,329.034760 
	C507.245789,323.292603 496.267609,317.501617 485.301788,311.687805 
	C482.131500,310.006958 478.974823,308.279846 475.951813,306.354279 
	C475.056610,305.784027 474.435059,304.533875 474.066101,303.464813 
	C473.757690,302.571106 474.000122,301.487000 474.000122,300.487183 
	C473.999969,208.505005 473.999695,116.522820 474.000549,24.540636 
	C474.000641,16.882908 476.906158,14.000518 484.622955,14.000460 
	C578.938049,13.999752 673.253113,13.999625 767.568176,14.000724 
	C774.996582,14.000811 777.998901,16.943577 777.999023,24.231853 
	C778.000610,116.380676 778.000000,208.529495 778.000000,300.678314 
	C778.000000,302.173584 778.000000,303.668854 778.000000,305.566315 
	C773.041199,308.188812 768.021973,310.843323 762.690186,313.711365 
z"/>
<path fill="#58595B" opacity="1.000000" stroke="none" 
	d="
M1072.307617,609.650757 
	C1073.355835,619.857056 1075.071167,629.703308 1074.806030,639.496033 
	C1074.318604,657.486328 1071.725586,675.333191 1063.609497,691.686646 
	C1051.569702,715.946350 1031.644165,730.250854 1005.367004,735.988953 
	C987.592834,739.870239 969.542419,738.866333 951.553650,739.018311 
	C940.771667,739.109436 930.826599,736.356995 922.159546,729.973450 
	C910.319946,721.253479 903.071716,709.684998 903.049744,694.643921 
	C902.940674,620.005066 903.000000,545.366089 903.000000,470.727112 
	C903.000000,468.734772 903.000000,466.742401 903.000000,464.375244 
	C918.541626,464.375244 933.931763,464.375244 949.773560,464.375244 
	C949.773560,491.276672 949.773560,518.325134 949.773560,545.033325 
	C956.679016,542.810974 963.143616,540.076965 969.885254,538.686401 
	C988.341858,534.879395 1006.330200,537.209656 1023.716248,544.324341 
	C1033.822144,548.459900 1042.885986,554.471191 1050.433960,562.178528 
	C1060.147339,572.096985 1066.342163,584.329834 1069.947510,597.756897 
	C1070.956299,601.513611 1071.385986,605.425781 1072.307617,609.650757 
M957.667297,695.192078 
	C958.088745,695.433533 958.515747,695.894897 958.930908,695.884399 
	C969.853455,695.608643 980.948608,696.380188 991.651611,694.684387 
	C1004.425659,692.660461 1014.749451,685.687744 1019.921387,673.037659 
	C1024.438477,661.989075 1025.335449,650.195679 1025.899414,638.471313 
	C1026.380859,628.463135 1025.100708,618.595581 1022.124146,608.884216 
	C1016.298462,589.877319 1004.968994,582.121887 986.929626,580.128967 
	C974.456970,578.751160 962.191467,581.218445 950.000732,584.628235 
	C950.000732,618.232971 949.919983,651.718811 950.099548,685.203247 
	C950.122864,689.554749 952.148010,693.438477 957.667297,695.192078 
z"/>
<path fill="#257ECE" opacity="1.000000" stroke="none" 
	d="
M66.000977,478.166595 
	C66.447350,478.121826 66.893730,478.077087 67.723717,478.395752 
	C68.574188,478.979156 69.041054,479.199158 69.507912,479.419128 
	C69.672264,478.668274 69.836617,477.917450 70.000961,477.166595 
	C71.718536,477.120300 73.436104,477.074005 75.630501,477.393433 
	C76.574188,477.979156 77.041046,478.199158 77.507912,478.419128 
	C77.672264,477.668274 77.836609,476.917450 78.000961,476.166565 
	C89.445580,476.111877 100.891823,475.916718 112.334290,476.048676 
	C120.898254,476.147369 129.510925,476.185944 138.004074,477.130798 
	C147.145538,478.147766 156.172913,480.190369 165.667664,482.262390 
	C166.738785,482.789307 167.392273,482.839325 168.045776,482.889343 
	C168.830551,483.221313 169.615326,483.553314 170.742676,484.312286 
	C171.738785,484.789276 172.392273,484.839294 173.045776,484.889343 
	C190.143616,491.319550 200.946213,503.973969 208.053177,520.286316 
	C208.250900,520.740112 208.519257,521.163147 208.476837,522.368774 
	C209.743774,527.424133 211.288574,531.711365 212.833359,535.998535 
	C213.226181,537.384766 213.881226,538.754700 213.968887,540.159973 
	C214.499023,548.656494 216.226242,556.838013 214.932434,565.762634 
	C213.849121,573.235291 213.216660,580.752380 211.064606,588.078064 
	C207.516663,600.155640 200.835953,610.220947 191.017517,618.896484 
	C189.227036,620.043213 188.142517,621.066345 187.058014,622.089478 
	C187.058029,622.089478 187.010635,622.010681 186.643661,622.017822 
	C185.437225,622.836975 184.597763,623.649048 183.758301,624.461121 
	C183.758316,624.461121 183.608536,624.624878 183.102081,624.449951 
	C180.446976,624.283447 176.997025,622.722046 178.762329,627.452393 
	C178.762329,627.452393 178.613312,627.624695 178.116928,627.453125 
	C174.038818,626.799316 170.740082,626.728760 170.999023,631.833374 
	C170.565277,631.893555 170.131531,631.953735 169.225571,631.757324 
	C168.123688,631.145569 167.494034,630.790405 166.864395,630.435181 
	C166.575928,631.567932 166.287476,632.700684 165.999008,633.833435 
	C153.442642,638.259277 140.579788,640.889099 127.201569,641.038757 
	C111.461571,641.214905 95.724777,641.676758 79.476074,641.760498 
	C78.565834,641.182983 78.166122,640.859680 77.766403,640.536377 
	C77.681366,640.799255 77.476372,641.261719 77.529968,641.293884 
	C78.025146,641.591492 78.565041,641.814697 79.091919,642.059509 
	C79.052299,672.403198 79.012680,702.746887 78.727982,733.647461 
	C78.264603,734.367126 78.109932,734.576843 78.018898,734.833496 
	C62.315720,734.880005 46.612537,734.926575 30.352516,734.728027 
	C29.632971,734.264587 29.423292,734.109863 29.166637,734.018799 
	C29.111092,731.189270 29.007479,728.359802 29.007065,725.530273 
	C28.997845,662.535889 29.150921,599.540833 28.879969,536.547607 
	C28.821768,523.016418 29.560421,509.993439 37.913345,498.146790 
	C39.009449,497.300903 39.449978,496.627014 39.890499,495.953156 
	C41.353298,494.043762 42.816101,492.134399 44.983719,490.102448 
	C46.772999,488.956726 47.857471,487.933624 48.941944,486.910492 
	C48.941944,486.910492 48.989357,486.989197 49.356331,486.982117 
	C50.562767,486.163025 51.402229,485.350983 52.241699,484.538940 
	C52.241703,484.538940 52.391479,484.363464 52.854721,484.534180 
	C57.363346,483.288910 61.429829,481.927246 65.422707,480.376099 
	C65.838783,480.214447 65.818695,478.930054 66.000977,478.166595 
M150.713791,587.974792 
	C151.794968,586.945190 152.876129,585.915588 154.096115,584.432068 
	C154.280426,584.142700 154.543610,583.984558 155.568741,583.974976 
	C156.009033,583.301331 156.449326,582.627625 156.996475,581.256287 
	C159.000504,576.516663 162.093170,571.922607 162.750824,567.003052 
	C163.712875,559.806274 162.928833,552.376099 163.414398,544.664185 
	C162.665146,543.109863 161.915894,541.555542 160.855286,539.361145 
	C156.569717,534.851929 152.284149,530.342651 147.816498,525.118347 
	C146.976059,524.920654 146.135605,524.722900 144.682755,524.769043 
	C144.121353,524.457153 143.559967,524.145325 142.800613,523.083984 
	C141.634811,522.890259 140.469025,522.696533 138.508224,522.871216 
	C130.485840,522.247498 122.472954,521.367249 114.438499,521.070251 
	C105.961845,520.756897 97.452530,521.282349 88.979820,520.919617 
	C80.714241,520.565796 80.535568,523.499573 79.030983,530.010315 
	C78.848320,530.800781 79.000305,531.669006 79.000298,532.501160 
	C78.999962,552.473450 78.994377,572.445801 79.011978,592.418091 
	C79.013245,593.853516 79.184593,595.288757 79.305298,597.166565 
	C93.094917,597.166565 106.548737,597.166565 120.107506,597.759094 
	C120.574440,597.978943 121.041382,598.198792 121.508301,598.418640 
	C121.672508,597.667969 121.836708,596.917236 122.867851,596.027588 
	C124.912750,596.073914 126.957649,596.120239 129.107452,596.759094 
	C129.574402,596.978943 130.041336,597.198792 130.508286,597.418640 
	C130.672485,596.667969 130.836700,595.917236 131.663651,595.032349 
	C132.109940,595.077087 132.556244,595.121826 133.107468,595.759094 
	C133.574402,595.978943 134.041336,596.198792 134.508286,596.418640 
	C134.672485,595.667969 134.836700,594.917236 135.663727,594.032288 
	C136.110077,594.077026 136.556427,594.121826 137.128845,594.806824 
	C141.864670,595.738037 148.924820,591.938293 149.989075,587.990173 
	C149.989075,587.990173 149.910522,587.941772 150.713791,587.974792 
z"/>
<path fill="#58595B" opacity="1.000000" stroke="none" 
	d="
M821.343872,603.845398 
	C822.256653,602.707825 823.405029,601.512573 823.180176,600.695312 
	C820.979980,592.702271 814.607239,588.354858 807.809204,585.143372 
	C791.421021,577.401489 774.189636,577.409241 756.946228,581.639526 
	C748.482666,583.715942 740.315430,586.977600 731.941895,589.459290 
	C729.641479,590.141113 727.080872,589.945007 724.261108,590.183777 
	C724.160034,588.357910 724.013611,586.911682 724.010681,585.465149 
	C723.990417,575.465271 724.000000,565.465454 724.000000,555.465576 
	C724.000000,546.395142 723.977295,546.303833 732.648376,544.149963 
	C750.667480,539.673828 768.864075,536.165039 787.538757,537.056396 
	C810.341797,538.144653 832.341309,542.451111 850.602295,557.374756 
	C860.364197,565.352600 866.274475,576.186646 868.876587,588.508850 
	C870.155273,594.563965 870.883362,600.850403 870.909912,607.036255 
	C871.084595,647.701538 871.000000,688.367981 871.000000,729.033997 
	C871.000000,730.835754 871.000000,732.637512 871.000000,734.717773 
	C855.596558,734.717773 840.537537,734.717773 825.180664,734.717773 
	C825.180664,729.300781 825.180664,724.021423 825.180664,718.812317 
	C818.710449,723.091125 812.816528,728.099548 806.058960,731.263489 
	C778.179321,744.317200 751.199768,742.034485 726.924133,723.025635 
	C714.036804,712.934326 707.803589,698.365295 705.819458,681.814819 
	C704.490234,670.727661 706.030396,660.405212 709.942627,650.214417 
	C715.767334,635.041748 726.830811,624.822876 741.224121,618.081116 
	C753.062378,612.536072 766.015015,611.688354 778.754395,609.936890 
	C791.185425,608.227905 803.546875,606.015625 815.949524,604.093323 
	C817.581299,603.840454 819.276428,603.996521 821.343872,603.845398 
M787.911987,696.584351 
	C798.795105,695.000977 809.083740,691.639404 818.572693,686.049316 
	C820.240234,685.066895 822.765137,683.468567 822.797974,682.104187 
	C823.117249,668.833801 822.990051,655.552673 822.990051,641.721863 
	C820.495239,642.096130 818.593567,642.386719 816.690186,642.666016 
	C809.104614,643.779114 801.472107,644.642639 793.944458,646.062195 
	C784.719360,647.801819 775.313721,649.218567 766.480652,652.226990 
	C757.361633,655.332764 753.351257,663.527893 753.195984,672.673523 
	C753.054932,680.984558 756.369507,688.315796 764.227356,692.657898 
	C771.365051,696.602051 779.100830,697.410034 787.911987,696.584351 
z"/>
<path fill="#257ECE" opacity="1.000000" stroke="none" 
	d="
M375.000000,647.000000 
	C375.000000,676.461121 375.000000,705.422241 375.000000,734.691040 
	C359.622131,734.691040 344.571106,734.691040 329.191010,734.691040 
	C329.191010,729.314941 329.191010,724.041748 329.191010,718.968933 
	C322.578400,723.287292 316.437073,728.155884 309.578888,731.594727 
	C296.087799,738.359375 281.784210,740.213867 266.602478,738.235107 
	C251.889618,736.317444 239.311447,730.474854 228.521347,720.833801 
	C219.513062,712.784729 213.823196,702.127869 211.459991,690.498901 
	C207.807327,672.524597 208.829102,654.801453 219.999786,639.082397 
	C230.494659,624.314392 244.971130,615.905945 262.715576,613.015381 
	C277.538727,610.600647 292.381927,608.303833 307.235107,606.081116 
	C313.064301,605.208862 318.948822,604.711060 324.798615,603.967651 
	C325.860046,603.832703 326.875183,603.333374 327.969910,602.983704 
	C325.804840,592.369446 318.129944,587.657959 309.515259,584.030029 
	C290.839874,576.165283 271.977051,578.475708 253.168762,583.461731 
	C248.002777,584.831177 243.047089,586.976807 237.918365,588.510376 
	C234.893738,589.414795 231.718826,589.816528 228.005127,590.566833 
	C228.005127,576.087585 227.924789,562.631042 228.151733,549.179688 
	C228.170685,548.056580 230.092346,546.305664 231.415222,545.969788 
	C241.183792,543.489746 250.926651,540.595398 260.869720,539.200195 
	C271.611145,537.692749 282.596649,536.768982 293.412048,537.197327 
	C312.824036,537.966248 331.665436,541.730835 348.337646,552.714355 
	C363.837463,562.925598 372.784882,577.266663 373.866852,595.734070 
	C374.856140,612.620178 374.668793,629.575317 375.000000,647.000000 
M258.005646,677.998535 
	C260.910431,691.749695 272.109467,696.236755 283.301208,696.878052 
	C298.512360,697.749756 312.105804,691.958252 325.173309,684.873718 
	C326.007202,684.421570 326.900330,683.143616 326.907867,682.242676 
	C327.018860,668.954773 326.984344,655.665649 326.984344,642.267029 
	C325.908203,642.147949 325.253082,641.935120 324.645020,642.028687 
	C309.315002,644.385132 293.925720,646.433350 278.692596,649.308044 
	C271.649628,650.637146 265.179321,653.688416 260.928223,660.408081 
	C257.543152,665.758789 258.086121,671.391541 258.005646,677.998535 
z"/>
<path fill="#257ECE" opacity="1.000000" stroke="none" 
	d="
M562.963928,574.847717 
	C559.138550,585.463196 555.305603,595.663818 551.573853,605.901367 
	C539.546082,638.897278 527.544556,671.902832 515.554443,704.912415 
	C506.284332,730.433716 497.713196,756.235229 487.574829,781.406067 
	C480.028015,800.142761 466.232880,812.891052 445.898956,818.221313 
	C429.597046,822.494629 413.174957,823.077637 396.279541,822.980530 
	C396.279541,809.015503 396.279541,795.413574 396.279541,781.000000 
	C399.865997,781.000000 403.613251,781.112793 407.351288,780.974854 
	C413.780396,780.737793 420.212891,780.467529 426.627563,779.990234 
	C438.904510,779.076843 446.128418,771.508789 450.516388,760.869080 
	C454.171661,752.005981 457.662109,743.021240 460.297638,733.824402 
	C461.068604,731.134094 458.983429,727.392700 457.660156,724.372925 
	C449.878021,706.613647 441.851501,688.961487 434.065033,671.204102 
	C423.863556,647.939209 413.886566,624.575867 403.665466,601.319641 
	C395.601105,582.970520 387.301941,564.724670 379.146027,546.415527 
	C378.422821,544.792053 377.988007,543.040100 377.350616,541.143555 
	C394.871185,541.143555 412.143097,541.143555 429.459381,541.143555 
	C447.375275,583.445129 465.259552,625.671936 483.558563,668.878052 
	C486.616699,660.913696 489.395630,654.015442 491.926697,647.027405 
	C504.329498,612.784546 516.682983,578.523743 528.989136,544.246094 
	C529.815796,541.943481 530.888245,540.909668 533.519775,540.936584 
	C547.012451,541.074463 560.507324,541.000366 574.825500,541.000366 
	C570.805237,552.374634 566.903931,563.412170 562.963928,574.847717 
z"/>
<path fill="#58595B" opacity="1.000000" stroke="none" 
	d="
M530.462402,476.450623 
	C577.280029,476.077911 623.755371,476.035645 670.230713,476.001831 
	C686.056274,475.990295 701.881897,476.000000 717.707458,476.000000 
	C719.326355,476.000000 720.945251,476.000000 722.778320,476.000000 
	C722.778320,491.400787 722.778320,506.337219 722.778320,521.760986 
	C699.103088,521.760986 675.381348,521.760986 651.200989,521.760986 
	C651.200989,592.946960 651.200989,663.649353 651.200989,734.675293 
	C634.355957,734.675293 617.968750,734.675293 601.117432,734.675293 
	C601.117432,663.969116 601.117432,593.266724 601.117432,522.079285 
	C577.274658,522.079285 553.886047,522.079285 530.120178,522.079285 
	C530.120178,506.659149 530.120178,491.721771 530.462402,476.450623 
z"/>
<path fill="#58595B" opacity="1.000000" stroke="none" 
	d="
M1207.000000,565.001099 
	C1207.000000,572.807434 1207.000000,580.114136 1207.000000,588.948242 
	C1200.684082,587.216370 1195.039673,585.627991 1189.373291,584.122681 
	C1175.668945,580.482178 1161.744873,577.939819 1147.557007,579.171082 
	C1140.919189,579.747131 1133.834961,580.308472 1128.630127,585.802307 
	C1125.585938,589.015564 1125.473267,591.795227 1128.529297,595.113159 
	C1134.704712,601.817688 1143.114624,604.002197 1151.197266,607.014038 
	C1165.015747,612.163147 1178.852905,617.292114 1192.477173,622.925354 
	C1208.888062,629.710815 1218.256226,642.783508 1221.695801,659.690979 
	C1225.228882,677.059326 1223.622803,694.056335 1212.943848,709.031433 
	C1203.008057,722.964661 1188.669800,730.854675 1172.570068,734.707397 
	C1161.201416,737.428040 1149.231445,738.790039 1137.539307,738.736328 
	C1119.726440,738.654480 1102.228027,735.018250 1085.146484,729.836243 
	C1084.186279,729.544922 1083.107178,727.677612 1083.094482,726.532654 
	C1082.949951,713.561096 1083.002808,700.587280 1083.002808,686.036621 
	C1089.004883,687.579285 1094.424805,688.772217 1099.722290,690.370789 
	C1116.682495,695.488708 1134.017212,698.212952 1151.663452,696.790161 
	C1159.437256,696.163330 1167.567627,694.845947 1173.398926,688.181641 
	C1179.842896,680.817261 1180.338989,672.520203 1171.040894,667.166809 
	C1164.501953,663.402039 1157.243286,660.842834 1150.200439,658.007507 
	C1137.268433,652.801270 1124.171509,647.997131 1111.304077,642.639709 
	C1096.756592,636.582947 1088.160156,625.227661 1083.717529,610.357056 
	C1078.662354,593.436157 1079.815552,577.086365 1090.286987,562.703735 
	C1099.666992,549.820496 1113.133423,542.403442 1128.753296,538.986694 
	C1142.137207,536.058960 1155.505005,536.432983 1168.866089,538.945068 
	C1181.583984,541.336243 1194.275635,543.867981 1207.000000,546.342102 
	C1207.000000,553.198730 1207.000000,558.850098 1207.000000,565.001099 
z"/>
<path fill="#257ECE" opacity="1.000000" stroke="none" 
	d="
M687.049438,131.978394 
	C695.824890,150.659698 693.521790,176.127304 679.464111,191.861664 
	C672.476440,199.682693 663.238708,203.920532 652.528870,203.972290 
	C632.567078,204.068771 612.604553,204.000000 592.321899,204.000000 
	C592.321899,171.991806 592.321899,140.285309 592.321899,108.000000 
	C595.790161,108.000000 599.232300,108.000000 602.674438,108.000000 
	C618.830261,108.000000 634.986816,107.904213 651.141663,108.028000 
	C666.120544,108.142761 677.437134,114.759056 684.951050,127.766083 
	C685.674683,129.018692 686.322693,130.314957 687.049438,131.978394 
z"/>
<path fill="#257ECE" opacity="1.000000" stroke="none" 
	d="
M65.635391,478.220520 
	C65.818695,478.930054 65.838783,480.214447 65.422707,480.376099 
	C61.429829,481.927246 57.363346,483.288910 52.951004,484.470642 
	C56.812634,482.249084 61.041225,480.261780 65.635391,478.220520 
z"/>
<path fill="#257ECE" opacity="1.000000" stroke="none" 
	d="
M212.901581,535.599609 
	C211.288574,531.711365 209.743774,527.424133 208.325058,522.720032 
	C209.957352,526.602295 211.463577,530.901428 212.901581,535.599609 
z"/>
<path fill="#257ECE" opacity="1.000000" stroke="none" 
	d="
M171.345154,631.795166 
	C170.740082,626.728760 174.038818,626.799316 178.022018,627.516113 
	C176.179413,629.086060 173.935333,630.421448 171.345154,631.795166 
z"/>
<path fill="#257ECE" opacity="1.000000" stroke="none" 
	d="
M179.033752,627.310242 
	C176.997025,622.722046 180.446976,624.283447 183.010010,624.511841 
	C182.051315,625.555176 180.678253,626.361633 179.033752,627.310242 
z"/>
<path fill="#257ECE" opacity="1.000000" stroke="none" 
	d="
M166.310364,633.823364 
	C166.287476,632.700684 166.575928,631.567932 166.864395,630.435181 
	C167.494034,630.790405 168.123688,631.145569 168.899689,631.805542 
	C168.237915,632.677979 167.429810,633.245667 166.310364,633.823364 
z"/>
<path fill="#257ECE" opacity="1.000000" stroke="none" 
	d="
M48.639404,487.040222 
	C47.857471,487.933624 46.772999,488.956726 45.287029,489.968750 
	C46.035973,489.028412 47.186417,488.099182 48.639404,487.040222 
z"/>
<path fill="#257ECE" opacity="1.000000" stroke="none" 
	d="
M187.360596,621.959717 
	C188.142517,621.066345 189.227036,620.043213 190.713058,619.031128 
	C189.964111,619.971497 188.813629,620.900757 187.360596,621.959717 
z"/>
<path fill="#257ECE" opacity="1.000000" stroke="none" 
	d="
M51.981869,484.676758 
	C51.402229,485.350983 50.562767,486.163025 49.316956,486.958435 
	C49.847755,486.232727 50.784901,485.523651 51.981869,484.676758 
z"/>
<path fill="#257ECE" opacity="1.000000" stroke="none" 
	d="
M184.018127,624.323364 
	C184.597763,623.649048 185.437225,622.836975 186.683044,622.041565 
	C186.152237,622.767273 185.215088,623.476379 184.018127,624.323364 
z"/>
<path fill="#257ECE" opacity="1.000000" stroke="none" 
	d="
M77.708481,476.161682 
	C77.836609,476.917450 77.672264,477.668274 77.507912,478.419128 
	C77.041046,478.199158 76.574188,477.979156 76.055145,477.462921 
	C76.473969,476.830017 76.944977,476.493378 77.708481,476.161682 
z"/>
<path fill="#257ECE" opacity="1.000000" stroke="none" 
	d="
M69.708481,477.161682 
	C69.836617,477.917450 69.672264,478.668274 69.507912,479.419128 
	C69.041054,479.199158 68.574188,478.979156 68.055145,478.462921 
	C68.473969,477.830017 68.944977,477.493378 69.708481,477.161682 
z"/>
<path fill="#257ECE" opacity="1.000000" stroke="none" 
	d="
M39.617393,496.059326 
	C39.449978,496.627014 39.009449,497.300903 38.227238,497.966187 
	C38.371796,497.360260 38.858036,496.762878 39.617393,496.059326 
z"/>
<path fill="#257ECE" opacity="1.000000" stroke="none" 
	d="
M167.912903,482.610138 
	C167.392273,482.839325 166.738785,482.789307 166.043350,482.452942 
	C166.594299,482.221405 167.187164,482.276184 167.912903,482.610138 
z"/>
<path fill="#257ECE" opacity="1.000000" stroke="none" 
	d="
M172.912903,484.610138 
	C172.392273,484.839294 171.738785,484.789276 171.043350,484.452942 
	C171.594299,484.221405 172.187164,484.276184 172.912903,484.610138 
z"/>
<path fill="#257ECE" opacity="1.000000" stroke="none" 
	d="
M29.142345,734.270508 
	C29.423292,734.109863 29.632971,734.264587 29.887177,734.658203 
	C29.691801,734.729675 29.404926,734.625977 29.142345,734.270508 
z"/>
<path fill="#257ECE" opacity="1.000000" stroke="none" 
	d="
M78.270607,734.857666 
	C78.109932,734.576843 78.264603,734.367126 78.658142,734.112793 
	C78.729691,734.308105 78.625999,734.595032 78.270607,734.857666 
z"/>
<path fill="#FFFFFF" opacity="1.000000" stroke="none" 
	d="
M957.259094,695.108154 
	C952.148010,693.438477 950.122864,689.554749 950.099548,685.203247 
	C949.919983,651.718811 950.000732,618.232971 950.000732,584.628235 
	C962.191467,581.218445 974.456970,578.751160 986.929626,580.128967 
	C1004.968994,582.121887 1016.298462,589.877319 1022.124146,608.884216 
	C1025.100708,618.595581 1026.380859,628.463135 1025.899414,638.471313 
	C1025.335449,650.195679 1024.438477,661.989075 1019.921387,673.037659 
	C1014.749451,685.687744 1004.425659,692.660461 991.651611,694.684387 
	C980.948608,696.380188 969.853455,695.608643 958.930908,695.884399 
	C958.515747,695.894897 958.088745,695.433533 957.259094,695.108154 
z"/>
<path fill="#FFFFFF" opacity="1.000000" stroke="none" 
	d="
M147.998581,525.833435 
	C152.284149,530.342651 156.569717,534.851929 160.948715,540.034912 
	C161.657745,542.154236 162.273361,543.599854 162.888977,545.045410 
	C162.928833,552.376099 163.712875,559.806274 162.750824,567.003052 
	C162.093170,571.922607 159.000504,576.516663 156.670013,581.711182 
	C155.857574,582.763306 155.371597,583.360413 154.885635,583.957581 
	C154.543610,583.984558 154.280426,584.142700 153.725266,584.792725 
	C152.206451,586.082825 151.058487,587.012329 149.910522,587.941772 
	C149.910522,587.941772 149.989075,587.990173 149.641174,588.097900 
	C145.196457,590.192627 141.099625,592.179626 137.002777,594.166565 
	C136.556427,594.121826 136.110077,594.077026 135.039795,594.094482 
	C133.944748,594.493347 133.473633,594.829956 133.002533,595.166626 
	C132.556244,595.121826 132.109940,595.077087 131.039749,595.094543 
	C129.944748,595.493347 129.473648,595.829956 129.002533,596.166565 
	C126.957649,596.120239 124.912750,596.073914 122.141876,596.092163 
	C120.944786,596.493347 120.473671,596.829956 120.002556,597.166565 
	C106.548737,597.166565 93.094917,597.166565 79.305298,597.166565 
	C79.184593,595.288757 79.013245,593.853516 79.011978,592.418091 
	C78.994377,572.445801 78.999962,552.473450 79.000298,532.501160 
	C79.000305,531.669006 78.848320,530.800781 79.030983,530.010315 
	C80.535568,523.499573 80.714241,520.565796 88.979820,520.919617 
	C97.452530,521.282349 105.961845,520.756897 114.438499,521.070251 
	C122.472954,521.367249 130.485840,522.247498 139.097870,522.976807 
	C140.791214,523.332764 141.894882,523.583130 142.998566,523.833435 
	C143.559967,524.145325 144.121353,524.457153 145.167297,524.914551 
	C146.434097,525.317871 147.216339,525.575623 147.998581,525.833435 
z"/>
<path fill="#257ECE" opacity="1.000000" stroke="none" 
	d="
M137.065826,594.486694 
	C141.099625,592.179626 145.196457,590.192627 149.617462,588.058350 
	C148.924820,591.938293 141.864670,595.738037 137.065826,594.486694 
z"/>
<path fill="#257ECE" opacity="1.000000" stroke="none" 
	d="
M163.151672,544.854797 
	C162.273361,543.599854 161.657745,542.154236 161.104401,540.354980 
	C161.915894,541.555542 162.665146,543.109863 163.151672,544.854797 
z"/>
<path fill="#257ECE" opacity="1.000000" stroke="none" 
	d="
M150.312164,587.958252 
	C151.058487,587.012329 152.206451,586.082825 153.655853,585.019653 
	C152.876129,585.915588 151.794968,586.945190 150.312164,587.958252 
z"/>
<path fill="#257ECE" opacity="1.000000" stroke="none" 
	d="
M142.899597,523.458740 
	C141.894882,523.583130 140.791214,523.332764 139.495392,522.792603 
	C140.469025,522.696533 141.634811,522.890259 142.899597,523.458740 
z"/>
<path fill="#257ECE" opacity="1.000000" stroke="none" 
	d="
M155.227188,583.966309 
	C155.371597,583.360413 155.857574,582.763306 156.616577,582.060059 
	C156.449326,582.627625 156.009033,583.301331 155.227188,583.966309 
z"/>
<path fill="#257ECE" opacity="1.000000" stroke="none" 
	d="
M120.055031,597.462830 
	C120.473671,596.829956 120.944786,596.493347 121.708405,596.161621 
	C121.836708,596.917236 121.672508,597.667969 121.508308,598.418640 
	C121.041382,598.198792 120.574440,597.978943 120.055031,597.462830 
z"/>
<path fill="#257ECE" opacity="1.000000" stroke="none" 
	d="
M129.054993,596.462830 
	C129.473648,595.829956 129.944748,595.493347 130.708374,595.161621 
	C130.836700,595.917236 130.672485,596.667969 130.508270,597.418640 
	C130.041336,597.198792 129.574402,596.978943 129.054993,596.462830 
z"/>
<path fill="#257ECE" opacity="1.000000" stroke="none" 
	d="
M133.054993,595.462830 
	C133.473633,594.829956 133.944748,594.493347 134.708374,594.161621 
	C134.836700,594.917236 134.672485,595.667969 134.508286,596.418640 
	C134.041336,596.198792 133.574402,595.978943 133.054993,595.462830 
z"/>
<path fill="#257ECE" opacity="1.000000" stroke="none" 
	d="
M79.049698,642.033569 
	C78.565041,641.814697 78.025146,641.591492 77.529968,641.293884 
	C77.476372,641.261719 77.681366,640.799255 77.766403,640.536377 
	C78.166122,640.859680 78.565834,641.182983 79.012596,641.799072 
	C79.059639,642.091858 79.007484,642.007629 79.049698,642.033569 
z"/>
<path fill="#257ECE" opacity="1.000000" stroke="none" 
	d="
M147.907532,525.475891 
	C147.216339,525.575623 146.434097,525.317871 145.473511,524.792664 
	C146.135605,524.722900 146.976059,524.920654 147.907532,525.475891 
z"/>
<path fill="#FFFFFF" opacity="1.000000" stroke="none" 
	d="
M787.491577,696.763062 
	C779.100830,697.410034 771.365051,696.602051 764.227356,692.657898 
	C756.369507,688.315796 753.054932,680.984558 753.195984,672.673523 
	C753.351257,663.527893 757.361633,655.332764 766.480652,652.226990 
	C775.313721,649.218567 784.719360,647.801819 793.944458,646.062195 
	C801.472107,644.642639 809.104614,643.779114 816.690186,642.666016 
	C818.593567,642.386719 820.495239,642.096130 822.990051,641.721863 
	C822.990051,655.552673 823.117249,668.833801 822.797974,682.104187 
	C822.765137,683.468567 820.240234,685.066895 818.572693,686.049316 
	C809.083740,691.639404 798.795105,695.000977 787.491577,696.763062 
z"/>
<path fill="#FFFFFF" opacity="1.000000" stroke="none" 
	d="
M258.003174,677.550659 
	C258.086121,671.391541 257.543152,665.758789 260.928223,660.408081 
	C265.179321,653.688416 271.649628,650.637146 278.692596,649.308044 
	C293.925720,646.433350 309.315002,644.385132 324.645020,642.028687 
	C325.253082,641.935120 325.908203,642.147949 326.984344,642.267029 
	C326.984344,655.665649 327.018860,668.954773 326.907867,682.242676 
	C326.900330,683.143616 326.007202,684.421570 325.173309,684.873718 
	C312.105804,691.958252 298.512360,697.749756 283.301208,696.878052 
	C272.109467,696.236755 260.910431,691.749695 258.003174,677.550659 
z"/>
</svg>