<?xml version="1.0" encoding="utf-8"?>
<!-- Generator: Adobe Illustrator 27.6.1, SVG Export Plug-In . SVG Version: 6.00 Build 0)  -->
<svg version="1.1" id="Layer_1" xmlns="http://www.w3.org/2000/svg" xmlns:xlink="http://www.w3.org/1999/xlink" x="0px" y="0px"
	 viewBox="0 0 1000 1000" style="enable-background:new 0 0 1000 1000;" xml:space="preserve">
<style type="text/css">
	.st0{fill:#EEF2F8;}
	.st1{fill:#49A17B;}
	.st2{fill:#7631CD;}
	.st3{clip-path:url(#SVGID_00000159446653210796577640000007697253274513407375_);}
	.st4{fill:#404041;}
	.st5{clip-path:url(#SVGID_00000098907646717839541890000010740256941048677543_);}
	.st6{clip-path:url(#SVGID_00000155132627480799622810000017017244049499117998_);}
	.st7{fill:#7163EB;}
	.st8{fill:url(#SVGID_00000075153880025666446160000015146954435075609523_);}
	.st9{fill:url(#SVGID_00000006682869695189090400000006232802501141127556_);}
	.st10{fill:url(#SVGID_00000106127881443737787750000007562785518717230250_);}
	.st11{fill:url(#SVGID_00000167360379250120162810000000305173733530932632_);}
	.st12{fill:url(#SVGID_00000129910099460808886010000002903543036344572323_);}
	.st13{fill:url(#SVGID_00000086650653999024922040000007461924971357343163_);}
	.st14{fill:url(#SVGID_00000080182232084229923890000016770229305003142038_);}
	.st15{fill:url(#SVGID_00000119092533514483943240000004651799562051152300_);}
	.st16{fill:url(#SVGID_00000100363827340284252210000007675320467963341447_);}
	.st17{fill:url(#SVGID_00000052069850737036862850000003436125837895092619_);}
	.st18{fill:url(#SVGID_00000029758236927884233220000002650967093333496475_);}
	.st19{fill:url(#SVGID_00000090265954872264670470000002525281727165081759_);}
	.st20{fill:url(#SVGID_00000070805314013379265330000001133058472907572151_);}
	.st21{fill:url(#SVGID_00000124878885705631990040000011872576487333587389_);}
	.st22{fill:url(#SVGID_00000116954692039068334640000007725183828121511335_);}
	.st23{fill:url(#SVGID_00000134233935999016763590000013241337783590808706_);}
	.st24{fill:url(#SVGID_00000124157696447946386790000017929039399616518804_);}
	.st25{fill:url(#SVGID_00000087411289845015371790000016362707684015394979_);}
	.st26{fill:url(#SVGID_00000003091635394322297190000016135799528309267900_);}
	.st27{fill:url(#SVGID_00000057126475713160328580000013479355561703162764_);}
	.st28{fill:url(#SVGID_00000035518605347562230010000010796427115157344137_);}
	.st29{fill:url(#SVGID_00000078749847015116257870000014587829019258819970_);}
	.st30{fill:url(#SVGID_00000083778721153944504290000004764973410845145996_);}
	.st31{fill:url(#SVGID_00000085972476934113805630000011374158903979571887_);}
	.st32{fill:url(#SVGID_00000013158811467600234190000007087210335479936387_);}
	.st33{fill:url(#SVGID_00000020378359972924852100000014986022402833150649_);}
	.st34{fill:url(#SVGID_00000044874759312467120300000010457265291248957595_);}
	.st35{fill:url(#SVGID_00000026124260715373838190000008277077284213746842_);}
	.st36{fill:url(#SVGID_00000065790566182027455360000014547128872842241204_);}
	.st37{fill:url(#SVGID_00000115496089198185201020000009617438563506786187_);}
	.st38{fill:url(#SVGID_00000067921097731757316110000004350552911321180034_);}
	.st39{fill:url(#SVGID_00000075862626121120067230000011944444774420407973_);}
	.st40{fill:#3F4144;}
	.st41{fill:#2E3B89;}
	.st42{clip-path:url(#SVGID_00000001662723722899161700000015694654993235222670_);}
	.st43{clip-path:url(#SVGID_00000111159699959436831580000008358140883745240736_);}
	.st44{clip-path:url(#SVGID_00000151544310696747059940000002761900408815785632_);}
	.st45{fill:#F3B840;}
	.st46{fill:#E04430;}
	.st47{fill:#CA5C6C;}
	.st48{fill:#DD9033;}
	.st49{fill:#CD412D;}
	.st50{fill:#D47935;}
	.st51{fill:#D5709F;}
	.st52{fill:#E9BD8D;}
	.st53{fill:#E19F4B;}
	.st54{fill:#EABF4B;}
	.st55{fill:#CA582D;}
	.st56{fill:#DA8F38;}
	.st57{fill:#C04624;}
	.st58{fill:#C85E26;}
	.st59{fill:#B1341B;}
	.st60{fill:#B24C1F;}
	.st61{fill:#9E2B17;}
	.st62{opacity:0.52;fill:#5EC9E8;enable-background:new    ;}
	.st63{opacity:0.49;fill:#8462DA;enable-background:new    ;}
	.st64{opacity:0.52;fill:#2D63E5;enable-background:new    ;}
	.st65{fill-rule:evenodd;clip-rule:evenodd;fill:#439579;}
	.st66{fill:#3273C2;}
	.st67{fill:#575756;}
	.st68{fill:#1D2C66;}
	.st69{fill:#BCC0DA;}
	.st70{fill:#464B6F;}
	.st71{display:none;fill:#FFFFFF;}
	.st72{fill:#303030;}
	.st73{fill:#B73533;}
	.st74{fill:#04B15C;}
	.st75{fill:url(#SVGID_00000096778915746748285540000003491704283711454107_);}
	.st76{fill:url(#SVGID_00000073000485749903216330000012823902369697893263_);}
	.st77{fill:url(#SVGID_00000106867626482853886940000012543980949268941970_);}
	.st78{fill:url(#SVGID_00000001623323116779164930000016310785871488839101_);}
	.st79{fill:#D33B30;}
	.st80{fill:url(#SVGID_00000021838508638038426110000008530915824188827294_);}
	.st81{fill:url(#SVGID_00000167388989951624756950000010369018466407313802_);}
	.st82{fill:url(#SVGID_00000173138418749640834450000006461211949207201940_);}
	.st83{fill:url(#SVGID_00000157989597884307678690000005389721592272149397_);}
	.st84{fill-rule:evenodd;clip-rule:evenodd;fill:#469BC7;}
	.st85{fill:#222943;}
	.st86{fill-rule:evenodd;clip-rule:evenodd;fill:#1E4B91;}
	.st87{fill-rule:evenodd;clip-rule:evenodd;fill:#F0A140;}
	.st88{fill:#72D24C;}
	.st89{fill-rule:evenodd;clip-rule:evenodd;}
	.st90{display:none;fill:#FBFAFA;}
	.st91{fill:#242323;}
	.st92{fill:#BA3630;}
	.st93{opacity:0.35;fill:#53A0B1;enable-background:new    ;}
	.st94{fill:#20465E;}
	.st95{fill:url(#SVGID_00000084496993611758507020000001296745078293977995_);}
	.st96{fill:#367A8D;}
	.st97{fill:url(#SVGID_00000121966157302284565960000006079528814805109143_);}
	.st98{fill:url(#SVGID_00000109733615908027306150000008110357079622190265_);}
	.st99{opacity:0.88;fill:url(#SVGID_00000059302061328033164280000002440597009010688129_);enable-background:new    ;}
	.st100{fill:url(#SVGID_00000127727038461752742470000007102970309865520048_);}
	.st101{fill:#143661;}
	.st102{fill:#56BC8E;}
	.st103{fill:#2B2B37;}
	.st104{fill:#334C71;}
	.st105{fill:#3777E6;}
	.st106{fill:#A8EDE6;}
	.st107{fill:#EBC18E;}
	.st108{fill:#2A2F44;}
	.st109{fill:#1B4625;}
	.st110{fill:#98C355;}
	.st111{fill:#60B258;}
	.st112{fill:#41914D;}
	.st113{fill:#2B663D;}
	.st114{fill:#CCDA70;}
	.st115{fill:#34516A;}
	.st116{fill:url(#Path_164488_00000155869194084153057440000000668840559035950489_);}
	.st117{fill:#FFFFFF;}
	.st118{fill:#58595B;}
	.st119{fill:#55AC9B;}
	.st120{fill:#464442;}
	.st121{fill:#B7A891;}
	.st122{fill:#265674;}
	.st123{fill:#759ECF;}
	.st124{fill:#C9CACB;}
	.st125{fill:#F2F2F2;}
	.st126{fill:#2B3777;}
	.st127{fill:#27599E;}
	.st128{fill:#25589C;}
	.st129{fill:#2B63A5;}
	.st130{fill-rule:evenodd;clip-rule:evenodd;fill:#B9B9B9;}
	.st131{fill:#B9B9B9;}
	.st132{fill:#7185B5;}
	.st133{fill:#1C4882;}
	.st134{fill:#0F2C5A;}
	.st135{fill:#091C46;}
	.st136{fill:#54565A;}
	.st137{fill:#306541;}
	.st138{fill-rule:evenodd;clip-rule:evenodd;fill:#CAAD5D;}
	.st139{fill-rule:evenodd;clip-rule:evenodd;fill:#0D0D0D;}
	.st140{fill:#181818;stroke:#181818;stroke-width:0.3631;stroke-miterlimit:10;}
	.st141{fill:#305E3C;}
	.st142{fill:#181818;stroke:#181818;stroke-width:0.3631;stroke-miterlimit:9.9999;}
	.st143{fill:#181818;}
	.st144{fill:#141414;}
	.st145{fill:#1F4169;}
	.st146{fill:#49A2D9;}
	.st147{fill:#59585A;}
	.st148{fill:#030F97;}
	.st149{fill:#56A9DC;}
	.st150{fill:#4AA3DB;}
	.st151{fill:#545352;}
	.st152{fill:#412C6F;}
	.st153{fill:#BF2F7C;}
	.st154{fill:#215280;}
	.st155{fill:#7D7D7D;}
	.st156{fill:#456790;}
	.st157{fill:url(#C_00000178205114915047465790000013295062461227570100_);}
	.st158{fill:#C6C7C8;}
	.st159{fill:url(#SVGID_00000171692465287292866260000005064324711052328374_);}
	.st160{fill:#285E96;}
	.st161{fill:#61993F;}
	.st162{fill:#23568C;}
	.st163{fill:#4FA4DA;}
	.st164{fill:#6F80B0;}
	.st165{fill:#265896;}
	.st166{fill:#3B81B6;}
	.st167{fill:#275A6B;}
	.st168{fill:#595A5C;}
	.st169{fill:#D7393A;}
	.st170{fill:#8AC9D5;}
	.st171{fill:#D63939;}
	.st172{fill:#D63838;}
	.st173{fill:#3172B5;}
	.st174{fill:#3475B7;}
	.st175{fill:#3374B7;}
	.st176{fill:#7B7C7F;}
	.st177{fill:#7A7B7E;}
	.st178{fill:#3373B6;}
	.st179{fill:#7B7B7E;}
	.st180{fill:#7C7C7F;}
	.st181{fill:#7E7F81;}
	.st182{fill:#797A7D;}
	.st183{fill:#7D7D80;}
	.st184{fill:#7C7D80;}
	.st185{fill:#7C7B7E;}
	.st186{fill:#808184;}
	.st187{fill:#214167;}
	.st188{fill-rule:evenodd;clip-rule:evenodd;fill:#C8AC47;}
	.st189{fill:none;stroke:#C8AC47;stroke-width:9.5261;}
	.st190{fill:none;stroke:#E6BA5D;stroke-width:9.5261;stroke-miterlimit:10;}
	.st191{fill-rule:evenodd;clip-rule:evenodd;fill:#304567;}
	.st192{fill:#CFCECC;}
	.st193{clip-path:url(#SVGID_00000129922613317715355050000011798182501481346688_);}
	.st194{fill:#265B65;}
	.st195{fill:#767A52;}
	.st196{fill:#808082;}
	.st197{fill-rule:evenodd;clip-rule:evenodd;fill:url(#SVGID_00000058561006751725955750000000050870792379389086_);}
	.st198{fill-rule:evenodd;clip-rule:evenodd;fill:url(#SVGID_00000128458327974849740850000008565703556875642010_);}
	.st199{fill:#3A5CA5;}
	.st200{fill:#2F3A89;}
	.st201{fill:#6D6E71;}
	.st202{fill:#41918E;}
	.st203{fill:#445DA5;}
	.st204{clip-path:url(#SVGID_00000047780721065311593830000015460975618880774824_);}
	.st205{fill:#4A6EAF;}
	.st206{fill:#381D13;}
	.st207{clip-path:url(#SVGID_00000043429851329065362040000013440159319446806951_);}
	.st208{clip-path:url(#SVGID_00000048475694384999308240000002661586388360650429_);}
	.st209{clip-path:url(#SVGID_00000047039197797346136540000001946862829531713929_);}
	.st210{clip-path:url(#SVGID_00000076577306437429760750000009899938554471297167_);}
	.st211{clip-path:url(#SVGID_00000082335606293878811080000007265477864858459581_);}
	.st212{clip-path:url(#SVGID_00000062165218369217869890000002049725004692496302_);}
	.st213{clip-path:url(#SVGID_00000002376151183533464970000011098546533088072330_);}
	.st214{clip-path:url(#SVGID_00000154404565123634928400000010247219524305058707_);}
	.st215{clip-path:url(#SVGID_00000102504504351713442450000001103372697948112008_);}
	.st216{clip-path:url(#SVGID_00000065064883351651551190000018291225125633281946_);}
	.st217{clip-path:url(#SVGID_00000159448957412729022250000003689140969988324229_);}
	.st218{fill:#A2A8AC;}
	.st219{fill:#41834F;}
	.st220{fill:#265BB2;}
	.st221{fill:#293B90;}
	.st222{fill:#C99378;}
	.st223{fill:none;}
	.st224{enable-background:new    ;}
	.st225{fill:#203D35;}
	.st226{fill:#817771;}
	.st227{fill:#265C80;}
	.st228{fill:#2C2926;}
	.st229{fill:#59BCF8;}
	.st230{fill-rule:evenodd;clip-rule:evenodd;fill:#0101C2;}
	.st231{fill-rule:evenodd;clip-rule:evenodd;fill:#0202C6;}
	.st232{fill:#3A42F4;}
	.st233{fill-rule:evenodd;clip-rule:evenodd;fill:#050386;}
	.st234{fill:#3038F4;}
	.st235{clip-path:url(#SVGID_00000173163206516030682820000015620119260953521593_);}
	.st236{fill:#ED7D30;}
	.st237{fill:#479EE6;}
	.st238{fill:url(#Path_6_00000112619149443697641540000012141163855407857834_);}
	.st239{fill:#CC2C79;}
	.st240{fill:#1A1818;}
	.st241{fill-rule:evenodd;clip-rule:evenodd;fill:#FFFFFF;}
	.st242{fill-rule:evenodd;clip-rule:evenodd;fill:#469B88;}
	.st243{fill-rule:evenodd;clip-rule:evenodd;fill:#2C2E6A;}
	.st244{fill:#469B88;}
	.st245{fill:#1E1C44;}
	.st246{fill:#DA6D2A;}
	.st247{clip-path:url(#SVGID_00000120517009127269724360000009192387900213026438_);}
	.st248{fill:#273669;}
	.st249{fill:#567DF6;}
	.st250{fill:#70D3FA;}
	.st251{fill:#88FAC1;}
	.st252{fill:#070E51;}
	.st253{opacity:0.5;}
	.st254{fill:url(#SVGID_00000007424967235702725730000016268637252334474113_);}
	.st255{fill:url(#SVGID_00000178182893115002945280000006371102356192177837_);}
	.st256{fill:url(#SVGID_00000034059414648301944260000015087743356865773983_);}
	.st257{fill:#05039B;}
	.st258{fill:#406DAF;}
	.st259{fill:#808086;}
	.st260{fill:#84C6C9;}
	.st261{fill:#86398D;}
	.st262{fill:#8E599C;}
	.st263{fill:#E7963E;}
	.st264{fill:#70C3ED;}
	.st265{fill:#4B2A50;}
	.st266{fill:#333333;}
	.st267{fill:#75FAAA;}
	.st268{fill:url(#SVGID_00000002344601881199358330000010439880945750056323_);}
	.st269{fill:#160141;}
	.st270{fill:url(#SVGID_00000089550700967611739440000006855254713772620472_);}
	.st271{fill:url(#SVGID_00000181066173763506982930000001112035351771113107_);}
	.st272{fill:url(#SVGID_00000060030200800782969370000005842174718039559813_);}
	.st273{fill-rule:evenodd;clip-rule:evenodd;fill:url(#SVGID_00000062899974752327725630000009766280380396534708_);}
	.st274{fill-rule:evenodd;clip-rule:evenodd;fill:url(#SVGID_00000137823696055529868100000016801887155583614636_);}
	.st275{fill-rule:evenodd;clip-rule:evenodd;fill:url(#SVGID_00000058554230280022946360000009077599232850089650_);}
	.st276{fill-rule:evenodd;clip-rule:evenodd;fill:url(#SVGID_00000134232635157886736130000009590040253903128227_);}
	.st277{fill:#414042;}
</style>
<g id="Group_1111" transform="translate(-53.178 -37)">
	<g id="Group_1104" transform="translate(53.178 37)">
		<path id="Path_1758" class="st66" d="M242.31,448.57h-31.97v53.69h31.97C273.85,502.26,274.18,448.57,242.31,448.57"/>
		<path id="Path_1759" class="st66" d="M309.46,395.81H149.05c-2.88,0.08-5.17,2.46-5.12,5.35V559l35.7,18.83V448.73H162.6v-29.85
			h84.34c67.09,0,66.39,113,0,113h-37.5v61.76l20.04,10.54L314.52,559V401.16c0.06-2.88-2.21-5.26-5.08-5.35"/>
	</g>
	<g id="Group_1105" transform="translate(88.518 40.802)">
		<path id="Path_1760" class="st66" d="M319.96,440.8c0-11.57,9.37-20.96,20.93-20.98h14.36c8.91-0.57,17.85,0.79,26.18,4.01
			c10.77,5.99,17.17,17.6,16.5,29.91c0.69,11.39-4.79,22.28-14.36,28.5c-8.63,4.72-18.39,6.96-28.21,6.48h-14.65v39h-20.78
			L319.96,440.8z M340.75,470.23h15.73c10.17,0,20.2-4.01,20.2-16.02c0-14.03-7.7-16.04-20.93-16.04h-12.33
			c-2.64,0-2.64,2.48-2.64,5.11L340.75,470.23z"/>
		<path id="Path_1761" class="st66" d="M445.86,520.29c-5.69,5.91-13.54,9.25-21.74,9.27c-14.81,0.82-27.48-10.52-28.3-25.33
			c-0.02-0.38-0.03-0.77-0.04-1.16c-0.28-13.48,9.86-24.9,23.27-26.22l26.5-3.85c-0.6-7.88-12.96-10.66-18.33-10.66
			c-7.39,0.08-14.69,1.71-21.41,4.79h-2.18v-17.88c7.75-2.45,15.8-3.8,23.93-4.01c18.49,0,36.49,6.94,37.14,27.29v55.17h-18.83
			V520.29z M427.69,512.29c6.2-0.26,12.21-2.17,17.42-5.53v-18.18c-6.58,1.2-13.4,1.84-20.19,3.23c-5.35,0.32-9.5,4.81-9.4,10.17
			C415.52,509.52,421.22,512.29,427.69,512.29"/>
		<path id="Path_1762" class="st66" d="M530.33,446.95h18.19l-35.6,98.17c-5.98,15.55-16.8,19.56-35.29,19.56h-3.53v-16.93
			c14.77,0.15,19.74,0,23.57-10.64l3.7-10.2l-35.15-79.96h21.43l22.96,54.24L530.33,446.95z"/>
		<path id="Path_1763" class="st67" d="M530.4,438.64v-18.82h80.15v18.82h-29.91v89.08h-20.8v-89.08H530.4z"/>
		<path id="Path_1764" class="st67" d="M653.88,520.29c-5.69,5.9-13.52,9.24-21.72,9.27c-14.8,0.84-27.48-10.48-28.32-25.27
			c-0.02-0.4-0.04-0.81-0.04-1.21c-0.29-13.48,9.85-24.9,23.27-26.22l26.5-3.85c-0.6-7.88-12.96-10.66-18.34-10.66
			c-7.4,0.07-14.69,1.71-21.42,4.79h-2.18v-17.88c7.75-2.45,15.8-3.8,23.93-4.01c18.5,0,36.53,6.94,37.16,27.29v55.17H653.9
			L653.88,520.29z M635.7,512.29c6.19-0.26,12.2-2.17,17.4-5.53v-18.18c-6.58,1.2-13.4,1.84-20.19,3.23
			c-5.35,0.32-9.5,4.81-9.4,10.17C623.51,509.52,629.22,512.29,635.7,512.29"/>
		<path id="Path_1765" class="st67" d="M705.95,529.42c-10.75-0.04-19.43-8.79-19.39-19.55c0-0.01,0-0.03,0-0.04v-95.1h19.55v34.51
			c4.67-2.85,10.08-4.24,15.55-4c10.79-0.19,21.12,4.37,28.24,12.48c5.84,8.27,8.8,18.24,8.44,28.36
			c0.27,9.05-1.79,18.02-5.98,26.04c-7.16,11.35-19.88,17.95-33.27,17.29L705.95,529.42z M710.73,511.99h6.48
			c5.57,0.41,11.08-1.35,15.38-4.92c4.95-5.1,5.56-14.36,5.56-20.98c0.3-5.57-0.94-11.12-3.59-16.03c-3.31-4.85-8.9-7.65-14.77-7.39
			c-4.65,0.12-9.27,0.79-13.76,2v42.86c0.08,2.5,2.14,4.49,4.65,4.47"/>
		<path id="Path_1766" class="st67" d="M762.22,525.39v-17.26h2.45c7.26,2.73,14.93,4.19,22.68,4.33c5.53-0.16,14.78-1.1,14.78-8.63
			c0-4.19-5.98-6.18-9.7-7.57c-6.66-2.22-13.2-4.78-19.59-7.69c-7.25-4.1-11.64-11.87-11.41-20.19c0-15.42,14.35-23.28,27.76-23.13
			c8.43,0.18,16.79,1.63,24.79,4.3v16.51h-2.6c-6.33-2.33-13-3.59-19.74-3.72c-3.09,0-11.72,0.6-11.72,5.25
			c0,2.46,4.47,4.95,7.87,6.03c7.03,2.2,13.93,4.82,20.65,7.85c7.94,4.1,12.72,12.5,12.18,21.42c0,18.5-17.1,26.51-34.09,26.51
			c-8.27-0.08-16.48-1.44-24.33-4.03"/>
	</g>
</g>
</svg>
