<svg width="40" height="12" viewBox="0 0 40 12" fill="none" xmlns="http://www.w3.org/2000/svg">
    <g id="001-visa">
    <path id="Path" d="M14 12L16.3415 0H20L17.7317 12H14Z" fill="white"/>
    <path id="Path_2" d="M14 12L17 0H20L17.7317 12H14Z" fill="white"/>
    <path id="Path_3" d="M30 0.505263C29.3464 0.252632 28.3007 0 26.9935 0C23.7255 0 21.3725 1.57895 21.3725 3.85263C21.3725 5.55789 23.0065 6.44211 24.3137 7.01053C25.6209 7.57895 26.0131 7.95789 26.0131 8.46316C26.0131 9.22105 24.9673 9.6 24.0523 9.6C22.7451 9.6 22.0261 9.41053 20.915 8.96842L20.4575 8.77895L20 11.3684C20.7843 11.6842 22.2222 12 23.7255 12C27.1895 12 29.4771 10.4211 29.4771 8.02105C29.4771 6.69474 28.6275 5.68421 26.6667 4.86316C25.4902 4.29474 24.7712 3.97895 24.7712 3.41053C24.7712 2.90526 25.3595 2.4 26.6667 2.4C27.7778 2.4 28.5621 2.58947 29.1503 2.84211L29.4771 2.96842L30 0.505263Z" fill="white"/>
    <path id="Path_4" d="M30 0.505263C29.3464 0.252632 28.3007 0 26.9935 0C23.7255 0 21.9608 1.57895 21.9608 3.85263C21.9608 5.55789 23.0065 6.44211 24.3137 7.01053C25.6209 7.57895 26.0131 7.95789 26.0131 8.46316C26.0131 9.22105 24.9673 9.6 24.0523 9.6C22.7451 9.6 22.0261 9.41053 20.915 8.96842L20.4575 8.77895L20 11.3684C20.7843 11.6842 22.2222 12 23.7255 12C27.1895 12 29.4771 10.4211 29.4771 8.02105C29.4771 6.69474 28.6275 5.68421 26.6667 4.86316C25.4902 4.29474 24.7712 3.97895 24.7712 3.41053C24.7712 2.90526 25.3595 2.4 26.6667 2.4C27.7778 2.4 28.5621 2.58947 29.1503 2.84211L29.4771 2.96842L30 0.505263Z" fill="white"/>
    <path id="Shape" fill-rule="evenodd" clip-rule="evenodd" d="M32.9451 0.866667C33.2747 0.0666667 33.8681 0 34.6593 0H37.2308L40 12H36.8352L36.4396 10H32.2198L31.5604 12H28L32.9451 0.866667ZM34.4593 4.46562C34.4593 4.46562 33.3384 7.39896 33.1406 7.99896V8.06563H35.9099C35.778 7.39896 35.1186 4.39896 35.1186 4.39896L34.9208 3.26562C34.723 3.73229 34.4593 4.46562 34.4593 4.46562Z" fill="white"/>
    <path id="Shape_2" fill-rule="evenodd" clip-rule="evenodd" d="M33.7363 0.866667C34.0659 0.0666667 34.6593 0 35.4505 0H37.2308L40 12H36.8352L36.4396 10H32.2198L31.5604 12H28L33.7363 0.866667ZM34.4593 4.46562C34.4593 4.46562 33.4044 7.33229 33.1406 7.99896V8.06563H35.9099C35.778 7.39896 35.1186 4.39896 35.1186 4.39896L34.9208 3.26562C34.723 3.73229 34.4593 4.46562 34.4593 4.46562Z" fill="white"/>
    <path id="Path_5" d="M9 8.33333L8.66667 6.6C8.06667 4.6 6.13333 2.4 4 1.33333L7 12H10.6L16 0H12.4L9 8.33333Z" fill="white"/>
    <path id="Path_6" d="M9 8.33333L8.66667 6.6C8.06667 4.6 6.13333 2.4 4 1.33333L7 12H10.6L16 0H13.0667L9 8.33333Z" fill="white"/>
    <path id="Path_7" d="M0 0L0.537313 0.12C4.35821 1.02 6.98507 3.3 8 6L6.92537 0.9C6.74627 0.18 6.20896 0 5.55224 0H0V0Z" fill="#FFBC00"/>
    <path id="Path_8" d="M0 0C3.8209 0.909091 6.98507 3.27273 8 6L6.98507 1.69697C6.80597 0.969697 6.20896 0.545455 5.55224 0.545455L0 0Z" fill="#F7981D"/>
    <path id="Path_9" d="M0 0C3.8209 0.909091 6.98507 3.27273 8 6L7.28358 3.63636C7.10448 2.90909 6.86567 2.18182 6.02985 1.87879L0 0Z" fill="#ED7C00"/>
    <g id="Group">
    <path id="Path_10" d="M11.9009 8.04629L9.73451 6.00117L8.71504 8.28689L8.46018 6.78313C7.88673 4.97862 6.03894 2.99366 4 2.03125L6.86726 11.6553H10.308L11.9009 8.04629Z" fill="white"/>
    <path id="Path_11" d="M17.8277 11.6544L15.0879 9.00781L14.5781 11.6544H17.8277Z" fill="white"/>
    <path id="Path_12" d="M25.1527 7.92969C25.4076 8.17029 25.535 8.35074 25.4713 8.59134C25.4713 9.31315 24.4519 9.67405 23.5598 9.67405C22.2855 9.67405 21.5846 9.4936 20.5014 9.07254L20.0554 8.89209L19.6094 11.3583C20.374 11.659 21.7757 11.9598 23.2412 11.9598C25.2802 11.9598 26.9368 11.4184 27.8926 10.456L25.1527 7.92969Z" fill="white"/>
    <path id="Path_13" d="M28.8477 11.6531H31.8423L32.4795 9.84863H36.5574L36.9397 11.6531H39.9981L38.9149 7.26216L35.0919 3.77344L35.2831 4.73584C35.2831 4.73584 35.9202 7.44261 36.0477 8.04411H33.3716C33.6264 7.44261 34.6459 4.85614 34.6459 4.85614C34.6459 4.85614 34.9008 4.19449 35.0919 3.77344" fill="white"/>
    </g>
    </g>
    </svg>
